<?xml version="1.0" standalone="no"?>
<!DOCTYPE svg PUBLIC "-//W3C//DTD SVG 20010904//EN"
 "http://www.w3.org/TR/2001/REC-SVG-20010904/DTD/svg10.dtd">
<svg version="1.0" xmlns="http://www.w3.org/2000/svg"
 width="1024.000000pt" height="1024.000000pt" viewBox="0 0 1024.000000 1024.000000"
 preserveAspectRatio="xMidYMid meet">

<g transform="translate(0.000000,1024.000000) scale(0.100000,-0.100000)"
fill="#000000" stroke="none">
<path d="M5488 9393 c6 -2 18 -2 25 0 6 3 1 5 -13 5 -14 0 -19 -2 -12 -5z"/>
<path d="M5553 9383 c9 -2 23 -2 30 0 6 3 -1 5 -18 5 -16 0 -22 -2 -12 -5z"/>
<path d="M5607 9379 c4 -4 28 -12 53 -17 40 -9 36 -9 -35 -6 l-80 4 50 -15
c28 -9 95 -24 150 -35 55 -11 137 -27 182 -36 45 -9 90 -14 99 -10 15 6 15 8
-1 26 -10 11 -30 20 -44 20 -14 0 -42 5 -62 10 -110 31 -325 72 -312 59z m191
-46 c-10 -2 -26 -2 -35 0 -10 3 -2 5 17 5 19 0 27 -2 18 -5z"/>
<path d="M4840 9343 c-189 -14 -390 -42 -390 -55 0 -7 49 -2 80 9 28 9 254 33
322 33 37 0 70 5 73 10 4 6 -4 9 -17 8 -13 -1 -43 -3 -68 -5z"/>
<path d="M5178 9333 c12 -2 30 -2 40 0 9 3 -1 5 -23 4 -22 0 -30 -2 -17 -4z"/>
<path d="M6140 9275 c7 -8 19 -15 27 -15 13 0 13 3 3 15 -7 8 -19 15 -27 15
-13 0 -13 -3 -3 -15z"/>
<path d="M4210 9239 c-174 -44 -284 -79 -276 -86 3 -3 35 5 73 17 37 12 145
42 238 66 94 23 159 43 145 43 -14 0 -95 -18 -180 -40z"/>
<path d="M6225 9251 c-28 -6 -25 -8 43 -34 40 -15 87 -27 105 -27 27 0 22 4
-42 35 -40 19 -73 34 -74 34 -1 -1 -15 -4 -32 -8z"/>
<path d="M4795 9183 c-301 -25 -597 -96 -821 -197 -44 -19 -118 -45 -164 -57
-46 -11 -129 -40 -184 -63 -56 -24 -112 -47 -125 -51 -21 -6 -22 -9 -8 -17 11
-5 38 -3 79 8 111 29 314 61 336 53 27 -10 25 -45 -5 -86 -29 -40 -29 -41 3
-35 20 3 23 7 12 14 -9 7 -8 8 7 5 11 -3 29 -8 39 -13 14 -5 17 -4 12 4 -7 12
43 10 85 -3 11 -4 19 -2 19 5 0 14 41 3 53 -14 6 -8 10 -8 13 0 3 6 15 9 28 7
32 -6 126 23 142 44 10 12 12 13 9 3 -4 -12 3 -15 32 -14 60 3 61 3 80 23 12
12 38 20 75 24 59 6 81 18 92 52 5 18 15 20 94 20 80 0 90 3 123 28 35 26 92
37 103 18 6 -9 52 -7 188 11 72 9 89 14 94 30 5 17 12 19 47 13 89 -14 117
-28 167 -82 28 -30 50 -58 50 -63 0 -11 32 0 42 14 5 7 8 7 8 1 0 -6 35 -11
80 -12 73 -2 82 0 104 22 22 21 27 23 55 12 17 -6 31 -19 31 -28 0 -9 10 -28
23 -42 18 -21 29 -25 60 -23 20 2 40 0 43 -5 3 -6 15 -7 25 -4 11 4 26 2 34
-5 10 -8 25 -1 67 33 30 24 94 64 143 87 84 42 89 43 115 28 25 -14 27 -14 26
0 0 9 8 18 19 20 12 2 16 0 9 -5 -7 -4 17 -9 54 -10 37 -2 68 -7 70 -13 3 -8
8 -7 17 0 14 12 106 8 140 -6 12 -5 8 3 -12 20 -43 37 -153 86 -303 136 -236
78 -256 81 -570 90 -157 5 -337 14 -400 19 -105 10 -460 12 -555 4z m1522
-226 c3 -4 -7 -7 -24 -7 -17 0 -46 -3 -64 -6 -32 -5 -33 -4 -11 8 22 14 86 17
99 5z m-879 -32 c-3 -3 -9 2 -12 12 -6 14 -5 15 5 6 7 -7 10 -15 7 -18z"/>
<path d="M6340 8906 c0 -2 7 -7 16 -10 8 -3 12 -2 9 4 -6 10 -25 14 -25 6z"/>
<path d="M3418 8803 c7 -3 16 -2 19 1 4 3 -2 6 -13 5 -11 0 -14 -3 -6 -6z"/>
<path d="M6653 8753 c46 -20 47 -29 2 -37 -19 -4 -37 -11 -40 -15 -2 -5 18 -2
45 6 58 17 123 4 118 -24 -2 -10 45 -40 152 -95 85 -44 181 -98 212 -119 60
-41 74 -47 62 -27 -4 7 -3 8 5 4 6 -4 9 -11 6 -16 -7 -11 94 -87 190 -143 113
-65 212 -147 335 -277 108 -114 149 -165 104 -130 -18 14 -18 14 -5 -2 7 -10
17 -16 21 -13 12 8 63 -52 55 -66 -5 -7 -4 -10 2 -6 6 4 40 -28 77 -70 63 -73
81 -103 54 -87 -8 4 -10 3 -5 -2 5 -5 14 -9 20 -9 5 0 12 -6 15 -14 3 -9 0
-11 -8 -6 -9 5 -11 4 -6 -4 4 -6 11 -9 16 -6 10 6 63 -61 86 -110 l15 -30 -23
27 c-13 15 -33 40 -46 55 l-23 28 17 -35 c31 -66 148 -245 200 -309 46 -55
116 -181 153 -275 7 -16 14 -26 17 -23 14 14 -157 413 -220 512 -228 362 -579
775 -743 876 -64 40 -41 14 69 -76 115 -94 121 -100 193 -180 59 -67 58 -81
-2 -19 -27 27 -47 52 -45 56 1 3 -26 29 -60 56 -35 28 -79 64 -98 82 -19 17
-63 54 -97 82 -34 28 -60 55 -56 61 3 6 1 7 -6 3 -12 -8 -121 68 -121 84 0 4
-24 19 -52 35 -29 15 -60 34 -68 41 -18 15 -139 84 -148 84 -4 0 7 -9 23 -20
35 -23 29 -26 -11 -5 -16 8 -29 20 -29 27 0 6 -7 13 -15 15 -13 4 -13 3 0 -6
11 -8 11 -11 2 -11 -20 0 -92 39 -92 51 0 6 -4 8 -9 4 -5 -3 -17 2 -26 11 -22
22 -150 71 -205 78 l-45 5 38 -16z m162 -81 c-3 -3 -11 0 -18 7 -9 10 -8 11 6
5 10 -3 15 -9 12 -12z m136 -58 c39 -19 69 -37 67 -39 -2 -3 -38 13 -79 35
-92 49 -83 53 12 4z m119 -58 c0 -2 -9 -2 -20 1 -11 3 -20 9 -20 15 0 5 9 4
20 -2 11 -6 20 -12 20 -14z m47 3 c19 -12 32 -23 30 -26 -5 -4 -77 36 -77 43
0 8 14 3 47 -17z m3 -35 c0 -2 -9 0 -20 6 -11 6 -20 13 -20 16 0 2 9 0 20 -6
11 -6 20 -13 20 -16z m95 -35 c79 -44 77 -53 -3 -11 -77 40 -80 42 -64 42 7 0
37 -14 67 -31z"/>
<path d="M3581 8720 c-51 -11 -116 -27 -145 -36 -60 -19 -280 -124 -273 -130
2 -2 42 14 89 36 47 22 89 40 93 40 15 0 -28 -33 -80 -60 -31 -16 -62 -33 -68
-37 -7 -4 -55 -26 -107 -49 -53 -23 -126 -62 -163 -88 -38 -25 -65 -40 -62
-33 4 6 -2 2 -13 -10 -11 -12 -22 -19 -26 -16 -3 4 -6 2 -6 -4 0 -6 -27 -27
-60 -47 -33 -21 -60 -40 -60 -44 0 -4 -20 -20 -45 -35 -25 -16 -45 -33 -45
-38 0 -5 -6 -9 -14 -9 -8 0 -16 -4 -18 -8 -1 -5 -31 -33 -64 -63 -34 -30 -74
-70 -90 -89 -18 -22 -1 -10 46 31 41 36 94 80 117 99 23 18 40 37 36 43 -3 6
-1 7 5 3 6 -4 46 17 89 47 116 81 311 196 462 273 74 38 156 81 184 95 60 33
109 41 184 33 l56 -7 -28 -23 -29 -23 35 3 c19 2 50 13 69 24 33 21 34 22 10
23 -14 0 -41 7 -60 14 l-35 13 30 2 c37 2 138 38 110 40 -18 1 -17 2 5 15 l25
14 -35 1 c-29 1 -31 3 -15 10 31 13 0 10 -104 -10z"/>
<path d="M4103 8688 c-15 -15 -24 -30 -21 -33 9 -9 52 15 70 40 17 23 17 24
-2 22 -11 -1 -32 -14 -47 -29z"/>
<path d="M3815 8639 c-28 -17 -72 -50 -100 -74 -63 -53 -73 -58 -195 -101 -55
-19 -130 -48 -166 -64 -86 -40 -106 -38 -26 2 97 48 66 44 -55 -7 -430 -183
-767 -440 -1103 -841 -73 -88 -121 -148 -105 -134 15 14 74 79 130 145 97 113
117 134 196 195 17 14 56 46 85 72 183 162 430 305 814 473 85 37 183 80 216
95 34 16 124 50 200 76 77 26 157 56 179 67 l39 20 31 -37 c16 -20 39 -36 50
-36 16 0 12 7 -20 40 -21 22 -37 41 -34 43 2 2 20 13 40 25 20 12 43 29 50 38
11 13 9 14 -17 9 -16 -4 -60 -16 -99 -28 -38 -12 -77 -22 -86 -23 -9 0 -23 -5
-30 -9 -11 -7 -11 -6 0 9 8 10 35 28 60 41 25 13 41 24 34 25 -6 0 -17 2 -25
5 -7 3 -36 -9 -63 -26z"/>
<path d="M6927 8659 c7 -7 15 -10 18 -7 3 3 -2 9 -12 12 -14 6 -15 5 -6 -5z"/>
<path d="M4900 8560 c-100 -4 -60 -6 200 -12 488 -11 637 -32 996 -144 137
-43 188 -53 169 -35 -15 13 -264 85 -415 119 -163 37 -336 60 -547 72 -163 10
-192 10 -403 0z"/>
<path d="M4668 8543 c6 -2 18 -2 25 0 6 3 1 5 -13 5 -14 0 -19 -2 -12 -5z"/>
<path d="M6773 8543 c7 -12 98 -46 104 -39 3 3 -21 14 -96 44 -9 3 -12 1 -8
-5z"/>
<path d="M4588 8533 c7 -3 16 -2 19 1 4 3 -2 6 -13 5 -11 0 -14 -3 -6 -6z"/>
<path d="M5718 8533 c7 -3 16 -2 19 1 4 3 -2 6 -13 5 -11 0 -14 -3 -6 -6z"/>
<path d="M6547 8528 c7 -8 9 -18 5 -23 -4 -4 4 -4 18 -1 14 4 21 4 15 -1 -29
-23 -51 -89 -58 -169 -2 -20 -27 -23 -27 -3 0 5 -10 9 -23 9 -13 0 -28 5 -35
12 -6 6 -14 9 -17 6 -5 -5 257 -158 271 -158 4 0 0 8 -7 18 -13 15 -12 16 3 3
10 -7 16 -17 13 -21 -3 -5 25 -27 62 -51 188 -118 336 -244 442 -377 85 -108
259 -374 233 -358 -19 12 -14 -3 18 -56 17 -26 30 -51 30 -55 0 -3 34 -68 75
-143 41 -75 75 -140 75 -143 0 -4 -6 -7 -12 -7 -7 0 -33 33 -57 73 -44 72 -81
124 -81 115 0 -3 9 -31 20 -63 11 -32 20 -63 20 -69 0 -13 -57 72 -180 269
-149 238 -227 342 -345 460 -60 61 -164 151 -230 200 -66 50 -121 93 -123 98
-2 4 -10 7 -19 7 -8 0 -21 7 -30 16 -10 9 -19 12 -25 6 -6 -6 -46 11 -106 44
l-97 53 -20 -24 -20 -24 -100 35 c-193 67 -463 124 -735 155 -171 20 -661 17
-822 -4 -350 -47 -718 -152 -983 -282 -49 -24 -144 -79 -210 -122 -167 -110
-284 -170 -315 -163 -24 6 -24 6 7 19 17 7 40 22 50 33 10 11 31 27 46 35 16
8 26 17 23 20 -3 3 -13 0 -21 -7 -11 -9 -19 -10 -27 -2 -14 14 0 35 19 28 11
-5 13 -2 9 11 -4 10 -4 14 0 11 3 -4 19 -1 35 7 36 19 45 19 29 0 -7 -8 -21
-15 -31 -15 -11 0 -19 -5 -19 -11 0 -15 42 0 62 24 10 11 15 23 12 28 -3 5 2
6 10 3 9 -4 40 10 72 31 114 76 333 172 619 271 99 35 178 63 175 63 -17 2
-184 -35 -263 -59 -22 -6 -46 -9 -54 -6 -10 4 -13 2 -10 -6 3 -9 -6 -13 -29
-14 -27 0 -31 2 -22 13 8 11 7 12 -6 7 -9 -3 -16 -1 -16 5 0 7 -19 3 -49 -9
-46 -18 -93 -42 -277 -141 -78 -42 -240 -151 -348 -235 -92 -72 -286 -253
-286 -268 1 -6 14 4 30 23 16 19 32 32 35 30 3 -3 -6 -16 -20 -29 -31 -29 -33
-50 -2 -24 12 11 9 5 -7 -13 -16 -18 -33 -30 -37 -27 -5 3 -6 -3 -2 -12 4 -12
3 -15 -5 -10 -8 5 -10 2 -6 -8 3 -9 2 -16 -2 -16 -5 0 -10 -11 -10 -25 -1 -13
-15 -41 -32 -62 -16 -21 -32 -47 -36 -58 -3 -11 -22 -37 -41 -59 -19 -21 -32
-42 -29 -47 3 -5 0 -9 -5 -9 -6 0 -11 -5 -11 -11 0 -13 -51 -55 -62 -52 -4 2
-5 -3 -2 -11 3 -7 -2 -19 -11 -26 -8 -7 -15 -18 -15 -24 0 -6 -9 -18 -19 -26
-11 -7 -18 -18 -15 -22 3 -5 0 -15 -6 -24 -10 -11 -16 -12 -27 -3 -11 10 -12
8 -6 -6 5 -14 3 -17 -9 -12 -12 4 -25 -15 -57 -83 -23 -49 -41 -92 -41 -95 0
-4 -11 -29 -25 -56 -13 -27 -22 -55 -19 -62 5 -13 -34 -62 -43 -54 -12 12 69
232 130 353 133 264 309 527 449 672 120 124 231 212 457 365 80 53 141 97
136 96 -15 -1 -92 -47 -178 -106 -49 -34 -83 -50 -94 -47 -14 5 -15 4 -4 -4 7
-5 9 -12 4 -15 -13 -8 -35 8 -31 24 4 20 117 109 161 126 20 8 37 19 37 24 0
5 7 9 15 9 8 0 15 5 15 10 0 6 7 10 15 10 22 0 76 36 67 45 -4 5 -2 5 5 1 13
-7 63 13 63 26 0 5 6 8 13 6 21 -4 58 13 51 24 -4 6 -1 9 7 6 8 -3 32 1 54 9
41 15 115 24 115 14 0 -3 -18 -15 -40 -25 -22 -11 -39 -21 -37 -22 2 -2 51 13
110 33 72 24 120 47 145 69 32 28 34 32 15 31 -12 -1 -19 -5 -16 -10 3 -5 -4
-6 -16 -2 -13 4 -21 2 -21 -5 0 -8 -10 -10 -27 -7 -16 3 -73 -5 -128 -19 -55
-13 -122 -29 -150 -35 -215 -47 -678 -253 -894 -397 -172 -116 -282 -211 -519
-451 -250 -254 -316 -336 -387 -483 -62 -127 -74 -218 -57 -425 7 -82 13 -184
13 -228 1 -77 15 -157 19 -110 1 11 4 15 7 7 2 -6 8 -10 12 -7 11 6 19 -708
11 -975 -4 -124 -12 -236 -18 -250 -9 -21 -11 -15 -13 45 -13 476 -15 462 -15
-75 1 -595 -9 -849 -38 -955 -8 -27 -17 -122 -20 -210 -4 -88 -11 -180 -16
-205 -5 -25 -14 -103 -20 -174 -13 -150 -38 -255 -79 -337 -18 -37 -24 -56
-15 -52 10 3 12 0 9 -10 -9 -22 34 -29 61 -9 13 9 24 21 24 26 0 5 11 -1 25
-14 l26 -24 -21 47 c-12 27 -20 52 -18 58 4 13 102 -118 158 -211 25 -41 60
-96 78 -122 17 -26 32 -51 32 -56 0 -5 9 -21 20 -34 10 -14 17 -27 15 -30 -3
-3 20 -33 50 -68 30 -34 52 -67 49 -72 -3 -5 -2 -8 3 -7 21 4 43 -2 43 -12 0
-5 -5 -7 -12 -3 -24 15 7 -22 59 -70 29 -26 50 -53 46 -59 -4 -6 -1 -7 6 -3 8
5 34 -13 71 -48 32 -31 65 -56 74 -56 17 0 68 -69 60 -81 -8 -13 -27 0 -64 45
-21 25 -41 41 -51 39 -21 -6 -17 -47 4 -51 9 -2 17 -8 17 -13 0 -6 4 -7 10 -4
5 3 7 0 5 -8 -3 -7 3 -22 15 -32 11 -10 20 -24 20 -30 0 -7 7 -15 15 -19 8 -3
15 -16 15 -30 0 -17 7 -26 25 -30 14 -4 23 -11 20 -16 -3 -6 0 -10 8 -10 8 0
18 -11 21 -25 4 -16 11 -23 18 -19 8 5 9 2 5 -9 -3 -10 -2 -17 3 -17 6 0 10
-7 10 -15 0 -8 4 -15 9 -15 5 0 20 -24 34 -53 13 -28 40 -72 60 -95 21 -24 37
-47 37 -51 0 -9 96 -106 160 -161 93 -80 220 -148 340 -180 25 -7 55 -16 68
-21 20 -8 242 -26 322 -26 51 -1 120 -14 120 -24 0 -5 8 -9 18 -9 10 0 25 -9
35 -20 9 -11 23 -20 31 -20 8 0 17 -9 21 -20 3 -11 18 -26 33 -34 88 -48 239
-118 263 -123 16 -3 29 -9 29 -14 0 -5 6 -9 14 -9 8 0 41 -11 73 -24 111 -46
320 -101 423 -111 36 -4 70 -11 76 -16 10 -8 69 -19 209 -38 103 -14 459 -6
565 13 52 9 129 21 170 26 88 11 198 35 300 65 8 2 35 9 60 15 61 15 148 47
188 71 18 10 40 19 48 19 8 0 22 4 32 9 9 4 51 25 92 45 41 20 82 40 90 45 8
5 27 14 43 20 15 6 37 15 50 20 12 5 63 24 112 42 50 18 120 50 156 71 37 20
78 40 92 44 15 3 31 12 38 20 6 8 18 14 25 14 8 0 14 4 14 8 0 5 18 15 40 22
22 7 40 17 40 22 0 4 4 8 9 8 6 0 36 15 68 34 32 18 69 37 83 41 13 4 31 14
39 22 23 24 89 63 106 63 8 0 15 5 15 10 0 6 4 10 10 10 9 0 81 46 90 58 3 4
22 16 43 27 20 11 37 23 37 27 0 5 8 8 18 8 10 0 32 16 48 35 16 19 34 35 41
35 6 0 31 18 55 41 23 22 53 45 66 50 12 5 22 16 22 25 0 10 5 14 15 10 9 -3
18 0 21 8 3 7 26 28 52 46 50 36 61 45 104 85 15 14 33 25 40 26 7 0 4 4 -7 9
-17 6 -14 9 18 15 27 5 35 10 25 16 -9 6 -6 9 11 9 13 0 22 3 18 6 -3 3 2 14
11 24 10 10 26 31 37 46 11 15 37 44 57 64 20 21 35 40 32 43 -3 3 4 10 15 17
12 6 21 16 21 23 0 7 25 39 55 72 30 32 55 62 55 66 0 4 6 14 13 21 7 7 21 30
31 51 9 21 23 40 30 43 6 2 12 14 13 25 1 12 10 30 19 41 10 10 19 24 20 31 1
7 8 26 15 42 7 17 11 34 11 38 -1 4 7 26 18 49 11 23 20 51 20 63 0 29 23 75
37 75 40 0 193 119 193 150 0 4 16 32 35 62 20 29 41 71 47 93 20 72 36 119
52 151 17 33 39 125 38 159 -1 10 4 25 9 32 6 6 8 17 4 23 -4 6 -2 16 3 23 6
7 13 30 16 52 13 83 30 170 36 175 3 3 6 18 7 34 1 16 8 33 15 38 10 6 10 8 1
8 -7 0 -10 6 -8 13 2 6 6 59 8 117 2 59 6 110 10 116 3 5 7 63 9 127 2 69 7
117 13 117 6 0 3 5 -5 10 -8 5 -10 10 -5 10 6 0 11 9 11 20 0 11 -5 20 -11 20
-5 0 -3 5 5 10 8 5 11 10 5 10 -6 0 -10 87 -10 240 0 132 4 240 9 240 4 0 5
21 2 48 -4 26 -9 85 -11 132 -6 106 -23 260 -35 320 -33 167 -42 210 -53 248
-6 23 -14 42 -17 42 -3 0 -7 19 -9 43 -1 23 -6 43 -10 45 -5 2 -7 13 -4 25 4
18 3 19 -7 7 -8 -12 -10 -7 -8 25 1 28 -2 39 -11 37 -7 -1 -10 2 -6 8 3 5 1
18 -4 27 -10 17 -10 16 -10 -2 0 -11 4 -51 9 -90 5 -38 12 -167 14 -285 l4
-215 -11 160 c-7 88 -15 165 -20 172 -4 6 -11 55 -16 110 -23 237 -22 254 11
211 18 -23 18 -22 4 17 -7 23 -16 59 -18 81 -3 22 -10 48 -15 59 -6 11 -14 40
-17 65 -4 25 -11 54 -16 65 -25 56 -70 182 -70 198 0 9 -4 17 -10 17 -5 0 -10
11 -10 24 0 14 -4 28 -10 31 -5 3 -10 17 -10 31 0 14 -4 23 -8 20 -4 -2 -14
10 -21 27 -42 100 -62 144 -119 262 -54 110 -97 189 -147 273 -63 105 -143
211 -207 274 -43 42 -78 74 -78 71 0 -4 17 -34 38 -67 89 -140 150 -249 220
-385 77 -152 89 -173 78 -131 -29 106 106 -215 159 -380 147 -457 225 -1053
180 -1385 -1 -11 -4 -47 -5 -80 -2 -55 -3 -57 -11 -25 -7 33 -7 33 -6 -12 1
-25 -1 -44 -5 -41 -5 2 -8 -11 -9 -29 0 -18 -2 -51 -4 -73 -2 -22 -9 -132 -15
-245 -6 -113 -15 -227 -20 -255 -5 -27 -9 -63 -8 -80 0 -29 0 -29 8 -5 4 14 9
41 10 60 2 33 3 33 10 10 7 -23 8 -23 10 10 1 19 4 27 7 17 6 -25 -48 -297
-58 -291 -5 3 -6 -2 -3 -10 3 -8 -4 -46 -17 -83 -12 -37 -30 -104 -39 -148
-36 -167 -83 -359 -96 -390 -12 -29 -72 -91 -80 -83 -9 10 -45 286 -42 330 3
46 7 55 36 74 l32 22 -37 -5 c-35 -5 -38 -3 -39 21 -1 18 3 26 15 26 9 0 23 6
30 13 10 10 11 9 6 -5 -11 -28 18 -22 46 10 13 15 17 21 9 14 -8 -6 -21 -12
-29 -12 -9 0 -1 12 19 28 57 46 70 61 70 82 0 25 -15 26 -35 3 -49 -61 -57
-68 -49 -48 4 11 7 28 8 38 0 9 4 17 8 17 4 0 8 7 8 15 0 13 -4 14 -22 4 -19
-10 -20 -9 -14 7 14 34 56 177 56 188 -1 22 -30 -29 -31 -53 l-1 -26 -8 28
c-6 20 -2 47 16 99 13 39 24 83 25 97 l1 26 8 -25 c6 -16 7 -6 3 28 -4 34 -1
62 7 77 18 34 8 762 -14 950 -9 77 -21 205 -26 285 -25 350 -62 536 -157 775
-71 178 -86 208 -117 228 -33 22 -43 22 -24 0 9 -10 28 -63 43 -118 15 -55 36
-122 48 -150 19 -44 21 -68 21 -195 -2 -186 -15 -291 -42 -318 -20 -20 -20
-19 -26 67 -3 47 -7 178 -8 291 -2 113 -6 221 -9 240 -11 62 -9 -830 2 -975 6
-81 13 -573 16 -1165 4 -1097 4 -1091 22 -1251 13 -118 13 -202 0 -237 -28
-75 -308 -462 -389 -538 -115 -107 -158 -139 -64 -48 86 83 164 173 164 188 0
3 -17 -13 -37 -36 -74 -85 -256 -253 -274 -253 -9 0 -21 -4 -25 -8 -5 -4 0 -5
11 -2 11 4 -25 -36 -79 -89 -54 -53 -103 -96 -108 -96 -5 0 -19 -9 -31 -21
-12 -11 -51 -42 -87 -67 -36 -26 -71 -52 -79 -60 -7 -7 -32 -22 -55 -33 -33
-15 -36 -16 -17 -2 13 10 71 55 129 100 122 97 162 126 162 119 0 -3 8 1 18 9
9 8 26 22 37 30 11 8 -2 4 -30 -10 -27 -14 -88 -57 -135 -94 -91 -73 -148
-112 -305 -211 -114 -73 -139 -91 -78 -61 105 53 33 3 -120 -82 -37 -21 -72
-35 -79 -31 -6 4 -8 3 -5 -3 4 -5 -6 -16 -21 -24 -15 -8 -49 -27 -77 -43 -89
-52 -269 -128 -308 -130 -37 -2 -39 9 -2 16 11 1 22 6 25 9 3 3 60 33 127 67
67 34 164 89 215 122 51 32 113 71 138 86 148 89 385 249 623 421 48 35 93 60
99 57 6 -4 8 -3 5 3 -4 6 19 33 50 59 72 61 136 120 227 208 39 37 81 75 94
84 24 16 87 101 133 182 14 25 49 83 78 129 56 92 58 98 36 98 -8 0 -21 -15
-30 -34 -9 -18 -18 -33 -21 -33 -3 0 -2 6 2 13 4 6 -7 -1 -24 -17 -18 -17 -32
-34 -32 -38 0 -5 11 4 25 19 13 15 25 23 25 18 0 -18 -276 -335 -368 -423
-102 -97 -300 -251 -389 -302 -34 -19 -158 -101 -275 -181 -312 -213 -477
-306 -723 -408 -55 -23 -125 -53 -155 -68 -74 -35 -167 -63 -212 -63 -32 0
-37 4 -47 31 -14 42 -14 120 1 156 9 22 12 24 15 10 4 -14 11 -16 41 -11 65
12 174 55 307 122 406 203 674 392 1135 800 211 187 399 415 485 587 88 178
87 164 98 890 14 925 13 1054 -1 1415 -10 230 -12 462 -7 795 7 504 5 535 -44
665 -97 258 -467 718 -801 997 -193 161 -535 364 -710 420 -121 38 -116 38
-103 21z m57 -63 c3 -8 1 -15 -3 -15 -5 0 -11 7 -15 15 -3 8 -1 15 3 15 5 0
11 -7 15 -15z m-34 -149 c0 -2 -7 -7 -16 -10 -8 -3 -12 -2 -9 4 6 10 25 14 25
6z m-2735 -56 c3 -6 -1 -7 -9 -4 -18 7 -21 14 -7 14 6 0 13 -4 16 -10z m1910
-24 c66 -8 143 -20 170 -26 87 -19 270 -72 279 -80 10 -10 -36 -35 -84 -45
-33 -7 -34 -8 -12 -18 15 -7 30 -7 47 1 13 6 26 8 29 3 10 -15 115 -34 156
-27 27 4 39 3 35 -4 -4 -6 4 -10 19 -10 17 0 24 -4 20 -13 -3 -9 9 -18 36 -26
22 -6 38 -16 35 -20 -2 -5 16 -14 40 -21 25 -7 45 -17 45 -21 0 -5 9 -9 20 -9
12 0 17 -5 14 -14 -3 -8 0 -17 7 -22 7 -4 15 -2 17 4 4 14 22 16 22 3 0 -14
51 -66 61 -63 5 1 4 -6 -2 -16 -10 -16 -16 -17 -35 -8 -13 6 -24 15 -24 19 0
5 -4 6 -9 3 -12 -8 -42 4 -36 14 5 9 -33 23 -54 20 -7 -1 -10 3 -7 8 3 5 -14
15 -37 22 -23 7 -53 20 -67 29 -14 9 -47 21 -75 27 -27 7 -77 22 -109 33 -33
12 -61 19 -64 17 -2 -3 14 -10 37 -17 23 -7 41 -16 41 -21 0 -4 6 -8 14 -8 21
0 189 -89 286 -152 109 -70 248 -186 340 -285 136 -145 310 -378 310 -414 0
-9 8 -23 17 -30 43 -36 198 -228 269 -335 44 -65 119 -195 168 -287 79 -152
89 -177 106 -270 10 -56 28 -136 40 -177 12 -41 23 -86 26 -100 4 -22 3 -22
-11 5 -11 24 -14 26 -15 10 0 -17 -2 -18 -11 -5 -8 11 -9 9 -3 -10 4 -14 8
-34 8 -45 1 -11 7 -26 14 -33 6 -7 12 -18 12 -24 0 -23 -26 1 -37 35 -7 20
-22 57 -33 82 -11 25 -34 81 -50 124 -16 44 -52 131 -80 193 -65 144 -67 149
-35 113 25 -29 24 -26 -10 55 -52 122 -117 233 -206 354 -85 114 -119 146 -47
44 51 -72 61 -88 55 -88 -3 0 -27 33 -56 73 -28 39 -60 84 -72 100 -11 15 -18
27 -14 27 4 0 -46 54 -112 121 -65 67 -117 125 -116 130 6 18 -243 246 -341
313 -21 14 -43 23 -49 19 -6 -4 -7 -1 -2 7 6 10 4 12 -9 7 -11 -5 -15 -3 -10
5 5 8 2 9 -9 5 -9 -3 -19 -1 -23 5 -5 7 -2 8 7 4 8 -4 5 0 -6 9 -11 9 -29 21
-40 26 -14 8 -13 4 5 -11 l25 -21 -32 16 c-18 8 -32 21 -30 28 1 6 -6 11 -15
9 -10 -1 -39 9 -65 23 -26 14 -54 25 -61 25 -7 0 -10 5 -7 10 3 6 -3 10 -13
10 -11 0 -99 33 -195 74 -264 113 -359 139 -632 177 -194 27 -404 34 -550 20
-433 -44 -897 -238 -1273 -535 -139 -109 -471 -446 -598 -606 -121 -153 -258
-357 -314 -468 -22 -45 -65 -145 -94 -221 -36 -93 -74 -170 -116 -236 -73
-112 -90 -170 -116 -390 -21 -176 -15 -601 10 -736 25 -139 145 -597 181 -694
19 -49 41 -117 49 -149 20 -76 29 -84 24 -21 -3 28 -16 76 -31 108 -28 59 -29
79 -2 27 9 -17 20 -28 25 -25 5 3 16 -7 25 -22 l16 -28 -6 30 c-3 17 -7 39 -9
51 -1 11 -7 27 -12 35 -4 8 -7 27 -5 42 1 15 -2 34 -8 41 -8 10 -8 16 2 25 19
15 1 111 -21 111 -11 0 -12 3 -3 13 6 8 9 34 6 60 -3 25 -1 67 4 94 6 31 6 50
-1 54 -7 4 -7 28 -1 70 l8 64 18 -104 c9 -57 14 -107 11 -112 -3 -5 -1 -9 3
-9 9 0 43 -167 43 -210 0 -14 11 -46 25 -72 14 -26 25 -54 25 -63 0 -10 5 -13
12 -9 8 5 9 0 6 -14 -4 -12 -3 -22 2 -22 4 0 27 -46 51 -102 23 -57 53 -119
65 -139 17 -27 20 -39 12 -47 -9 -9 -7 -17 5 -30 20 -22 22 -42 5 -42 -10 0
-10 -2 -1 -8 6 -4 15 -20 18 -35 4 -15 12 -27 17 -27 6 0 7 7 4 16 -3 9 -2 12
5 9 5 -4 7 -15 4 -26 -7 -21 10 -27 19 -6 3 6 3 2 0 -10 -5 -21 9 -33 19 -15
2 4 3 2 1 -4 -1 -6 14 -28 33 -48 19 -20 32 -36 28 -36 -4 0 -2 -6 4 -13 8
-10 7 -14 -4 -14 -7 0 -13 5 -12 11 1 6 -3 10 -10 9 -8 -2 -10 4 -6 14 5 12 2
15 -10 10 -12 -4 -14 -2 -10 10 4 11 2 14 -5 9 -8 -4 -10 -2 -6 7 4 10 -1 15
-13 14 -10 -1 -17 4 -16 11 2 6 -1 12 -7 12 -5 0 -33 31 -61 70 -29 38 -54 68
-57 66 -9 -9 31 -76 83 -138 30 -36 55 -70 55 -75 0 -4 23 -32 51 -62 53 -57
82 -100 57 -85 -7 5 -20 9 -28 11 -19 3 -52 42 -44 54 3 5 -2 6 -11 2 -13 -5
-14 -7 -3 -14 7 -5 8 -9 2 -9 -13 0 -56 35 -50 41 2 2 -7 12 -20 22 -21 16
-25 16 -30 2 -16 -41 88 -186 308 -432 58 -65 128 -145 154 -178 96 -121 132
-156 290 -283 12 -9 19 -21 16 -26 -3 -5 0 -6 6 -2 6 3 14 2 17 -4 4 -6 33
-24 66 -40 32 -17 59 -33 59 -35 0 -3 -9 -1 -21 5 -11 7 -23 10 -25 7 -9 -9
69 -47 154 -76 237 -80 350 -141 263 -141 -63 0 -360 108 -499 181 -61 32
-122 82 -156 128 -11 17 -16 19 -12 8 5 -16 0 -15 -41 8 -53 30 -107 69 -138
98 -11 11 -30 26 -43 34 -13 9 -28 25 -33 36 -10 18 -9 19 14 15 l26 -5 -33
41 c-17 23 -45 61 -60 85 -34 52 -199 272 -272 361 -112 136 -193 256 -259
383 -38 73 -90 171 -117 220 -26 48 -49 93 -51 99 -1 7 -8 19 -15 26 -7 8 -10
24 -7 36 4 14 3 17 -3 8 -6 -9 -12 -6 -21 14 -11 25 -11 26 5 13 16 -13 16
-12 2 16 -9 17 -23 68 -32 115 -9 47 -27 135 -41 195 -13 61 -31 148 -40 195
-22 113 -36 160 -46 154 -5 -3 -9 -25 -9 -50 0 -32 -4 -44 -15 -44 -8 0 -15 1
-15 3 0 1 -9 49 -20 107 -18 92 -21 143 -20 430 0 179 5 363 10 410 11 92 59
305 91 410 22 69 138 323 151 328 4 2 4 10 1 19 -4 10 -2 14 4 10 6 -4 14 0
17 9 4 10 2 13 -7 8 -6 -4 -4 1 6 12 10 10 45 69 78 129 131 238 271 423 503
665 50 52 77 83 60 67 -34 -30 -56 -37 -31 -9 10 10 14 22 10 25 -3 4 -2 7 4
7 15 0 23 24 13 40 -9 15 -19 7 -59 -50 -14 -19 -33 -42 -44 -50 -122 -92
-341 -378 -437 -570 -52 -102 -69 -125 -65 -87 4 40 5 42 14 29 7 -11 9 -10
14 3 4 10 3 14 -4 9 -8 -4 -9 1 -4 17 9 31 -6 17 -34 -31 -105 -180 -162 -303
-211 -455 -12 -38 -28 -83 -35 -100 -7 -16 -18 -55 -25 -85 -7 -30 -16 -59
-20 -65 -12 -16 -48 -174 -56 -245 -4 -36 -9 -59 -11 -52 -7 19 15 173 37 254
25 91 57 217 71 283 7 28 25 88 40 135 16 47 29 87 29 90 -3 43 -149 -405
-149 -455 0 -11 -9 -63 -20 -115 -11 -52 -21 -117 -22 -145 l-2 -50 -6 45 -6
45 -13 -78 c-6 -43 -12 -89 -12 -102 0 -14 -5 -25 -11 -25 -7 0 -9 -10 -7 -25
3 -13 2 -22 -3 -20 -4 3 -10 -7 -12 -22 -3 -16 -3 13 0 62 17 341 113 712 263
1020 108 221 266 499 336 592 36 48 9 55 -33 8 -18 -20 -33 -41 -33 -47 0 -5
-4 -6 -10 -3 -6 3 -7 -1 -4 -9 3 -9 1 -16 -5 -16 -6 0 -18 -14 -27 -32 -19
-36 -44 -65 -44 -49 0 5 5 13 11 16 6 4 8 14 4 22 -6 16 40 103 54 103 5 0 12
12 16 27 3 15 20 41 37 57 16 17 36 43 44 59 8 15 19 27 25 27 6 0 7 5 4 10
-3 6 -2 10 3 10 11 0 77 85 104 134 10 17 18 27 18 23 0 -13 19 9 103 120 131
170 225 246 359 288 34 10 55 22 51 28 -4 6 0 8 10 4 20 -7 113 42 133 72 9
13 22 20 32 17 10 -3 28 2 42 10 24 15 16 14 -24 -2 -14 -5 -17 -4 -12 4 4 7
2 12 -6 12 -9 0 -9 3 2 10 8 5 23 7 34 4 13 -5 16 -3 11 7 -6 8 -4 11 6 7 20
-8 46 -16 36 -11 -4 3 9 20 29 39 25 25 41 33 57 30 12 -3 16 -3 10 0 -31 14
2 35 77 50 19 3 47 13 63 20 56 29 24 4 -40 -32 -81 -45 -78 -42 -70 -51 4 -3
15 1 24 9 19 16 61 36 133 64 25 9 50 20 55 24 6 4 19 4 30 -1 18 -7 17 -8 -6
-8 -16 -1 -26 -7 -26 -16 0 -18 2 -18 25 -5 24 14 200 70 221 70 9 0 23 6 30
13 11 10 12 9 6 -2 -6 -11 -2 -12 21 -7 16 4 26 4 21 0 -10 -10 -75 -35 -110
-41 -15 -3 -30 -9 -32 -14 -8 -11 14 -6 155 40 101 32 221 60 262 61 17 0 -1
-54 -23 -66 -29 -16 -21 -18 16 -4 14 5 54 14 88 19 74 12 538 43 687 46 129
3 144 7 60 15 l-65 7 75 2 c53 2 69 5 54 11 -12 4 -24 15 -27 24 -5 14 4 16
66 17 62 2 66 3 32 9 -76 14 12 11 140 -4z m1130 -115 c3 -5 2 -12 -3 -15 -5
-3 -9 1 -9 9 0 17 3 19 12 6z m-3666 -122 c-13 -10 -31 -18 -39 -18 -10 1 -10
3 3 6 9 2 14 9 11 15 -9 13 15 28 34 21 11 -5 9 -10 -9 -24z m3863 -4 c8 3 28
-1 44 -10 16 -8 22 -15 14 -16 -8 -1 -4 -5 10 -9 22 -7 21 -8 -12 -9 -20 -1
-40 4 -44 11 -5 8 -2 9 10 5 12 -5 16 -3 13 5 -2 7 -15 13 -28 14 -43 2 -49 4
-49 15 0 8 4 8 14 0 7 -6 20 -9 28 -6z m-3903 -28 c-2 -1 -14 -10 -26 -20 -21
-18 -21 -18 -18 0 2 10 4 18 4 18 4 2 42 3 40 2z m3984 -34 c-7 -2 -21 -2 -30
0 -10 3 -4 5 12 5 17 0 24 -2 18 -5z m17 -33 c0 -5 -2 -10 -4 -10 -3 0 -8 5
-11 10 -3 6 -1 10 4 10 6 0 11 -4 11 -10z m-3935 -20 c3 -6 -1 -7 -9 -4 -18 7
-21 14 -7 14 6 0 13 -4 16 -10z m-15 -21 c12 -8 10 -9 -9 -4 -14 5 -21 3 -17
-3 3 -5 -2 -16 -11 -23 -9 -8 -14 -9 -11 -4 2 6 8 18 11 28 7 20 16 21 37 6z
m330 -24 c-33 -19 -49 -19 -24 0 10 8 26 14 34 14 9 0 4 -6 -10 -14z m-440
-19 c0 -2 -7 -7 -16 -10 -8 -3 -12 -2 -9 4 6 10 25 14 25 6z m2160 -96 c-11
-8 -8 -9 12 -4 35 8 242 -14 246 -27 2 -5 19 -9 37 -9 82 0 264 -54 394 -116
53 -26 127 -54 164 -64 38 -10 71 -21 73 -23 3 -3 -25 -13 -62 -23 -65 -17
-68 -17 -98 0 -201 118 -455 191 -692 200 -118 5 -119 5 -24 -3 114 -10 169
-24 200 -51 13 -11 23 -20 24 -20 5 0 116 -20 133 -24 21 -4 75 -36 62 -36 -3
0 -28 7 -56 15 -57 17 -234 45 -273 44 -18 -1 -12 -4 18 -13 24 -6 40 -15 35
-20 -4 -5 8 -6 27 -2 19 3 29 3 23 0 -7 -3 -13 -12 -13 -20 0 -8 -6 -14 -12
-15 -31 -1 44 -21 131 -34 109 -16 164 -33 155 -46 -3 -6 6 -8 23 -4 15 3 22
2 16 -1 -18 -8 -16 -27 2 -20 8 3 15 1 15 -5 0 -6 4 -8 10 -4 11 7 51 -14 65
-35 13 -21 16 -60 4 -60 -6 0 -8 4 -4 9 3 5 0 13 -6 17 -8 4 -9 3 -5 -4 9 -16
-7 -15 -22 0 -6 6 -14 9 -17 7 -2 -3 19 -23 47 -45 57 -42 108 -92 108 -105 0
-4 21 -20 48 -35 134 -78 419 -315 405 -337 -3 -6 -1 -7 4 -4 11 7 150 -133
263 -263 142 -165 328 -494 403 -715 36 -104 56 -189 37 -150 -9 18 -10 17 -5
-5 2 -14 5 -32 6 -40 0 -10 3 -9 10 5 7 15 8 9 4 -20 -4 -29 -3 -36 4 -25 8
11 9 4 5 -25 -4 -31 -3 -36 5 -25 9 11 10 4 5 -30 -4 -30 -2 -40 4 -31 7 9 10
0 10 -30 0 -24 3 -139 7 -256 13 -367 -27 -618 -146 -916 -63 -157 -121 -257
-150 -257 -16 0 -10 26 32 147 112 326 160 530 179 748 26 310 0 565 -82 821
-37 118 -240 523 -283 567 -16 17 -21 25 -11 17 20 -15 20 -15 0 18 -10 19
-31 43 -46 54 -27 18 -41 47 -16 32 7 -4 8 -3 4 5 -4 6 -11 9 -16 6 -4 -3 -32
22 -61 56 -58 67 -176 174 -292 264 -47 36 -75 65 -72 73 2 7 1 11 -4 7 -5 -3
-20 12 -32 32 -26 42 -121 134 -195 190 -44 33 -78 61 -179 152 -16 14 -23 18
-16 9 18 -24 8 -22 -37 6 -121 76 -244 123 -417 158 -94 19 -142 23 -332 23
-122 0 -220 1 -218 3 1 2 40 7 86 11 69 7 75 9 32 10 -82 2 -311 -45 -434 -89
-310 -110 -547 -288 -858 -645 -89 -101 -307 -405 -368 -512 -15 -27 -53 -20
-53 9 0 33 97 212 177 326 200 286 465 549 760 755 29 21 58 37 63 37 6 0 9 4
6 9 -3 5 0 8 7 8 22 -2 238 109 230 118 -5 4 -2 5 6 0 8 -4 16 -2 21 5 4 6 19
13 33 13 14 1 23 6 19 11 -3 5 1 7 9 4 9 -3 37 0 64 7 27 6 43 14 36 16 -8 3
17 11 55 17 138 26 219 46 200 50 -36 8 -367 -55 -479 -92 -26 -8 -45 -11 -42
-6 4 6 16 10 28 11 14 0 17 2 7 6 -8 2 -22 7 -30 10 -11 3 -7 9 13 19 15 8 25
19 22 23 -22 36 467 153 704 169 88 5 98 8 61 13 -44 6 -44 6 15 7 43 1 56 -1
45 -8z m-950 -315 c0 -2 -20 -18 -45 -35 -25 -17 -45 -27 -45 -23 1 4 20 20
43 35 45 29 47 30 47 23z m493 -12 c-7 -2 -19 -2 -25 0 -7 3 -2 5 12 5 14 0
19 -2 13 -5z m2767 -173 c12 -25 19 -42 15 -38 -13 13 -75 112 -75 122 0 14
35 -35 60 -84z m-1215 39 c92 -47 171 -106 273 -203 39 -38 72 -65 72 -61 0 4
8 1 17 -6 10 -8 0 7 -20 33 -40 48 -81 84 -154 130 -24 15 -43 29 -43 32 0 2
15 1 33 -4 50 -11 95 -1 117 27 l19 24 85 -88 c46 -48 99 -107 118 -130 113
-143 274 -339 281 -341 4 -2 5 -7 2 -11 -2 -5 3 -17 11 -27 9 -10 12 -13 8 -5
-5 10 -3 12 5 6 19 -11 99 -138 127 -201 13 -30 40 -87 60 -127 40 -80 97
-237 86 -237 -4 0 -23 39 -41 88 -41 103 -112 254 -118 248 -2 -2 2 -24 10
-48 52 -158 14 -120 -107 106 -38 71 -140 214 -229 321 -43 52 -39 49 28 -20
86 -89 81 -77 -14 32 -35 40 -68 70 -74 66 -6 -3 -7 -1 -3 6 8 12 -68 111 -85
111 -20 0 -6 -26 55 -109 247 -335 427 -652 496 -876 7 -22 16 -44 20 -50 4
-5 13 -26 19 -45 116 -332 152 -557 153 -940 0 -129 3 -183 9 -160 5 19 10
143 11 276 2 191 6 241 16 241 10 0 13 -25 14 -101 0 -56 1 -155 2 -221 3
-126 -9 -420 -13 -325 l-2 55 -13 -35 c-7 -19 -23 -109 -36 -199 -23 -172 -56
-317 -90 -397 -12 -26 -18 -54 -16 -61 3 -8 1 -11 -4 -8 -6 3 -10 4 -10 1 0
-2 -3 -12 -7 -22 -4 -12 -3 -15 5 -10 8 5 10 2 6 -8 -3 -9 -11 -13 -17 -9 -6
3 -7 1 -3 -5 4 -6 -3 -30 -14 -53 -12 -22 -19 -47 -16 -55 3 -8 2 -13 -3 -9
-5 3 -15 -12 -21 -32 -14 -42 -17 -49 -85 -205 -26 -59 -44 -112 -40 -117 9
-15 -34 -93 -47 -85 -7 4 -8 3 -4 -5 17 -27 -180 -238 -211 -226 -8 2 -12 1
-8 -4 3 -5 -31 -40 -76 -78 -44 -37 -140 -119 -212 -181 -392 -338 -835 -537
-1305 -587 -263 -28 -477 -18 -742 35 -217 43 -301 71 -572 187 -187 79 -270
121 -341 169 -111 75 -244 201 -229 216 6 6 17 6 32 -2 52 -28 26 8 -87 118
-102 100 -248 256 -291 314 -11 13 -8 23 18 60 20 28 29 50 24 61 -3 9 -10 14
-15 11 -31 -19 -197 272 -294 514 -117 292 -162 522 -172 862 -4 186 -8 220
-24 248 -11 18 -19 50 -19 71 0 62 33 232 50 256 4 6 10 23 14 38 4 15 11 25
16 22 5 -3 8 0 5 7 -3 7 8 28 25 46 17 19 28 37 25 42 -3 4 1 10 8 13 10 4 8
-19 -10 -91 -13 -54 -22 -118 -21 -144 3 -54 17 -65 19 -15 1 30 1 30 9 7 6
-23 8 -22 14 15 4 22 9 45 10 50 2 6 1 -119 -2 -276 -5 -291 3 -450 34 -639
20 -124 65 -304 102 -407 16 -45 25 -80 20 -77 -5 4 -2 -9 7 -27 10 -18 28
-63 40 -99 13 -37 48 -108 79 -159 31 -51 56 -98 56 -104 0 -7 -8 3 -17 21 -8
18 -18 31 -20 28 -4 -4 0 -15 29 -68 67 -127 81 -154 86 -158 3 -3 2 3 -1 13
-4 9 -2 17 4 17 5 0 -1 15 -15 33 -15 19 -26 37 -26 42 0 4 20 -20 45 -54 45
-60 54 -78 36 -66 -5 3 -13 0 -17 -6 -4 -8 -3 -9 4 -5 7 4 12 1 12 -6 0 -10 2
-10 8 0 6 8 21 -3 50 -39 46 -57 46 -57 31 -79 -8 -11 -9 -9 -4 10 7 24 7 24
-9 5 -8 -11 -16 -14 -16 -8 0 7 -6 12 -12 10 -7 -1 -12 4 -10 11 1 8 -2 11 -8
7 -14 -9 3 -37 52 -91 22 -23 38 -45 36 -48 -2 -3 50 -60 116 -126 105 -108
234 -210 265 -210 6 0 11 -4 11 -9 0 -8 72 -51 86 -51 3 0 2 5 -2 12 -4 7 -3
8 5 4 6 -4 9 -11 7 -15 -3 -4 16 -17 42 -29 203 -89 509 -205 522 -197 5 3 63
-8 129 -25 179 -45 354 -64 576 -63 308 2 516 40 776 143 119 47 284 134 314
165 11 12 47 38 80 58 158 96 387 302 568 512 145 168 211 260 201 277 -4 7
-3 8 4 4 7 -4 12 -1 12 7 0 14 33 82 82 167 14 25 40 82 58 128 18 45 35 81
37 79 2 -2 -1 -17 -7 -32 -6 -15 -9 -30 -6 -32 2 -3 23 54 46 127 23 73 39
134 37 137 -3 3 1 28 10 55 8 28 23 83 33 122 11 39 19 60 19 47 1 -13 -6 -50
-15 -83 -8 -33 -13 -67 -10 -75 4 -9 2 -11 -6 -7 -7 5 -9 2 -6 -8 4 -8 -9 -68
-28 -132 -19 -64 -32 -121 -29 -127 4 -5 1 -9 -4 -9 -6 0 -11 -12 -11 -27 0
-25 2 -24 20 14 34 76 88 256 108 363 27 137 40 645 23 853 -39 474 -168 858
-421 1257 -41 63 -79 120 -86 125 -7 6 -36 42 -65 80 -28 39 -70 90 -93 113
-55 59 -228 210 -356 312 -150 119 -202 170 -172 170 4 0 43 -18 87 -41z
m-3927 -164 c-3 -3 -9 2 -12 12 -6 14 -5 15 5 6 7 -7 10 -15 7 -18z m-125 8
c-7 -2 -19 -2 -25 0 -7 3 -2 5 12 5 14 0 19 -2 13 -5z m40 -36 c-9 -15 -21 4
-15 25 5 21 6 21 12 2 4 -10 5 -22 3 -27z m61 27 c4 -9 4 -19 1 -22 -2 -3 -7
3 -11 12 -3 9 -10 14 -14 11 -5 -3 -11 -1 -15 5 -3 5 3 10 13 10 11 0 23 -7
26 -16z m-24 -24 c0 -5 -2 -10 -4 -10 -3 0 -8 5 -11 10 -3 6 -1 10 4 10 6 0
11 -4 11 -10z m-55 -20 c13 -6 15 -9 5 -9 -8 0 -22 4 -30 9 -18 12 -2 12 25 0z
m60 -7 c-11 -3 -23 -10 -27 -17 -5 -7 -8 -7 -8 0 0 16 11 24 34 23 20 -1 20
-1 1 -6z m2705 -14 c75 0 99 -3 85 -10 -17 -8 -16 -8 5 -2 49 13 195 6 236
-12 21 -9 48 -21 59 -26 11 -5 32 -13 48 -19 15 -5 27 -14 27 -20 0 -5 14 -10
30 -10 17 0 30 -4 30 -10 0 -13 53 -40 82 -41 23 -1 23 -1 -2 -9 -21 -7 -18
-8 20 -10 38 -2 41 -3 20 -10 -21 -7 -18 -8 20 -11 l45 -2 -45 -7 -45 -7 50
-2 c38 -2 45 -4 30 -11 -17 -7 -14 -9 15 -10 l35 -2 -30 -7 c-29 -7 -28 -7 15
-13 24 -4 46 -12 48 -18 2 -6 16 -16 31 -22 24 -10 25 -11 6 -18 -15 -6 -7 -9
30 -11 l50 -2 -40 -7 c-38 -7 -38 -7 -8 -9 57 -2 133 -24 133 -38 0 -7 11 -13
24 -13 14 0 28 -4 31 -10 3 -5 16 -10 29 -10 13 0 44 -19 72 -45 27 -25 57
-48 66 -51 10 -3 18 -10 18 -15 0 -5 6 -9 13 -9 7 0 20 -9 30 -20 16 -19 16
-20 -1 -20 -14 0 -15 -2 -2 -10 9 -6 18 -6 24 0 16 16 53 12 60 -6 18 -46 -2
-129 -33 -139 -9 -3 -17 -14 -17 -24 0 -11 4 -17 8 -15 4 3 8 0 8 -5 0 -6 -5
-11 -11 -11 -6 0 -17 -6 -25 -14 -7 -8 -17 -16 -21 -18 -5 -1 -6 -381 -3 -843
l6 -840 2 747 c2 723 6 838 33 838 4 0 12 -12 18 -27 26 -66 30 -119 20 -261
-6 -80 -8 -177 -5 -216 31 -375 31 -1144 0 -1246 -18 -62 -51 -109 -38 -55 4
17 4 27 0 24 -4 -4 -8 -20 -11 -37 -6 -47 -72 -166 -118 -212 -24 -23 -58 -45
-80 -51 -21 -5 -46 -12 -55 -15 -9 -3 -6 2 8 11 18 12 19 14 5 10 -11 -4 -28
-10 -37 -12 -10 -3 -15 -9 -13 -14 3 -4 -3 -8 -12 -8 -10 0 -38 -4 -63 -10
-25 -6 -67 -10 -94 -11 -44 0 -48 2 -32 13 17 13 16 15 -15 28 l-34 14 35 6
c21 4 -1 6 -55 6 -57 0 -112 6 -150 17 -53 15 -70 27 -140 99 -79 81 -243 304
-452 615 -58 87 -114 168 -124 181 -29 36 -24 73 16 121 19 23 35 46 35 51 0
12 -27 11 -35 -1 -3 -5 -15 -10 -26 -10 -18 0 -18 2 -5 28 8 15 58 74 111 132
54 58 118 130 144 160 25 30 75 89 111 130 70 80 320 393 359 448 l22 32 180
0 179 0 11 -27 c8 -20 10 -271 5 -872 -7 -950 -1 -885 -84 -948 -41 -31 -48
-33 -128 -33 -54 0 -95 5 -112 14 -40 21 -89 78 -178 205 -43 62 -97 137 -119
165 -22 28 -48 62 -56 76 -9 14 -29 39 -45 55 -16 17 -33 37 -39 46 -29 47
-72 109 -102 148 -18 25 -31 51 -28 59 6 16 -13 44 -25 37 -5 -3 -18 15 -30
39 -22 46 -39 59 -66 49 -12 -4 -14 -14 -10 -35 8 -39 88 -172 106 -176 8 -2
19 -10 23 -18 5 -8 16 -22 26 -32 9 -9 32 -36 50 -60 18 -23 46 -56 62 -72 29
-28 37 -50 20 -50 -10 0 -9 -50 2 -68 5 -7 13 -10 18 -7 5 3 6 0 4 -7 -5 -13
191 -283 254 -351 74 -82 174 -115 308 -103 113 10 112 10 107 17 -5 9 25 21
37 14 5 -4 6 1 3 9 -5 14 31 43 49 38 4 -1 6 1 5 5 0 5 13 39 31 76 30 65 51
132 68 225 l8 44 26 -24 26 -25 8 114 c3 63 4 361 0 661 -6 504 -1 712 21 883
4 35 2 50 -11 63 -10 9 -20 14 -24 10 -3 -4 0 -9 8 -12 11 -4 11 -6 0 -13 -10
-6 -11 -9 -1 -9 6 0 12 -4 12 -9 0 -5 -8 -7 -19 -4 -10 3 -33 -3 -50 -11 -36
-19 -40 -27 -11 -19 33 9 14 -23 -23 -39 -34 -14 -173 -14 -262 1 l-50 8 65 1
c84 0 127 8 223 39 44 14 74 29 71 35 -3 5 -15 7 -27 4 -12 -3 -16 -1 -10 5 5
5 20 10 34 11 14 1 26 8 26 15 0 8 -5 9 -11 4 -6 -5 -27 -12 -46 -16 -19 -4
-39 -11 -45 -15 -10 -7 -105 -29 -216 -50 -32 -6 -113 -15 -180 -20 -68 -5
-140 -13 -159 -19 -19 -6 -48 -11 -64 -11 -40 0 -106 -70 -171 -184 -93 -161
-241 -380 -345 -511 -201 -251 -222 -267 -473 -360 -92 -34 -87 -10 -86 -484
1 -229 5 -519 9 -646 5 -151 6 -33 4 340 -4 458 -2 574 8 588 8 11 31 19 60
22 43 4 46 3 53 -22 3 -14 3 -279 -1 -589 -8 -620 -9 -605 53 -618 32 -7 154
-75 136 -76 -17 0 36 -49 86 -79 22 -14 38 -27 36 -31 -2 -4 7 -12 20 -18 14
-7 25 -16 25 -22 0 -7 -6 -8 -17 -2 -38 20 -164 45 -174 35 -7 -7 0 -14 22
-22 39 -13 42 -14 34 -1 -3 6 1 7 9 4 9 -3 14 -10 11 -14 -3 -4 14 -13 38 -18
63 -16 137 -51 144 -69 9 -23 -21 -45 -63 -46 -22 -1 -118 11 -214 26 -297 45
-366 50 -609 43 -228 -6 -307 -11 -349 -21 -20 -5 -22 -3 -13 13 9 16 6 18
-22 14 l-32 -4 39 40 c61 64 114 81 285 94 l148 11 7 75 c3 41 6 162 6 269 0
151 3 194 13 191 9 -4 15 -73 23 -264 9 -221 11 -241 13 -134 2 80 6 116 11
100 5 -16 8 -19 9 -8 1 9 12 29 26 44 14 15 25 33 25 40 0 8 5 14 10 14 6 0
10 7 10 15 0 8 4 15 10 15 5 0 6 7 3 17 -5 12 -3 14 7 8 10 -6 12 -1 8 21 -3
16 -2 52 2 79 4 30 8 -55 9 -212 0 -145 2 -263 4 -264 1 0 52 -7 112 -15 122
-15 163 -21 215 -28 l35 -6 -38 15 c-20 8 -83 19 -140 25 -56 5 -116 12 -133
15 l-31 5 -7 373 c-4 204 -11 498 -16 652 -5 154 -10 566 -11 915 -2 648 -10
648 -23 0 -5 -291 -17 -461 -36 -510 -5 -14 -10 -36 -12 -49 -4 -33 -22 -37
-36 -9 -10 22 -11 22 -13 -7 l-2 -30 -7 35 -7 35 -2 -45 c-4 -68 -17 -137 -24
-120 -13 33 -19 262 -23 789 l-3 555 -23 23 c-40 40 -220 54 -279 23 -29 -16
-23 -20 13 -9 37 10 145 12 198 3 75 -13 69 55 75 -976 2 -508 7 -1075 11
-1260 4 -238 3 -338 -5 -338 -6 0 -8 -6 -5 -13 3 -8 -6 -18 -21 -25 -37 -17
-41 -15 -14 8 l24 20 -42 -18 c-27 -11 -37 -20 -30 -25 7 -5 0 -7 -16 -4 -46
7 -172 -19 -234 -49 -71 -34 -105 -40 -96 -17 4 10 2 14 -5 9 -16 -10 -4 43
19 83 15 25 16 32 5 28 -8 -3 -17 -3 -21 1 -4 4 -12 7 -18 7 -7 0 -11 8 -11
17 1 9 -4 15 -10 12 -6 -2 -23 14 -38 35 -47 66 -95 120 -102 114 -10 -10 -7
-25 4 -18 6 4 7 -1 3 -11 -7 -18 -14 -11 -70 71 -16 22 -31 42 -34 45 -17 15
-92 136 -126 205 -96 192 -158 398 -189 625 -18 135 -19 385 -4 720 13 314 40
425 106 450 76 29 76 31 19 -355 -44 -298 -40 -669 9 -907 49 -231 86 -328
241 -618 43 -80 44 -93 5 -49 -43 50 -116 193 -154 304 -28 82 -34 93 -39 69
-7 -37 2 -61 15 -42 7 9 8 3 4 -17 -5 -20 -4 -25 3 -16 6 10 11 5 16 -20 13
-63 93 -214 159 -303 36 -49 80 -113 97 -142 50 -87 169 -208 144 -146 -4 9
-8 22 -9 27 -3 19 -17 35 -26 30 -5 -3 -12 0 -16 6 -4 8 -3 9 4 5 17 -10 15 9
-1 23 -8 6 -18 7 -22 3 -5 -4 -4 -1 0 7 12 21 97 -77 89 -102 -5 -15 -3 -17
13 -8 20 11 115 43 179 60 25 7 45 20 52 33 8 16 13 193 16 603 2 319 5 666 7
770 l3 190 6 -160 c5 -100 5 -59 2 110 -6 341 -3 569 8 715 6 63 10 119 10
124 0 5 -28 6 -62 4 -71 -6 -109 -24 -211 -101 -38 -29 -71 -52 -75 -51 -4 1
-24 -10 -44 -22 -21 -13 -40 -24 -43 -24 -12 0 -4 49 10 60 15 12 11 35 -5 25
-4 -3 -10 0 -12 7 -3 9 -9 8 -22 -5 -24 -23 -27 -22 -16 8 26 67 81 132 210
244 19 17 32 31 29 31 -11 0 -69 -31 -74 -41 -4 -5 -14 -13 -25 -19 -14 -7
-20 -6 -25 7 -3 10 -3 14 1 10 11 -11 33 13 27 29 -3 8 0 14 6 14 6 0 11 5 11
10 0 6 20 31 45 57 25 25 45 52 45 60 0 8 5 11 10 8 6 -3 10 -1 10 4 0 6 9 11
21 11 15 0 19 4 15 16 -4 9 -1 23 5 30 6 7 8 18 4 24 -3 5 0 10 7 11 10 0 10
2 -1 6 -11 5 -11 7 0 14 12 8 11 11 -1 19 -12 8 -12 10 5 10 17 0 17 2 5 10
-12 8 -10 10 10 11 23 0 23 1 5 9 -14 6 -15 9 -5 9 9 1 22 10 30 21 8 11 21
20 30 21 10 0 9 3 -5 9 l-20 9 20 0 c17 1 17 3 5 11 -13 8 -13 10 2 10 9 0 25
11 36 25 11 14 28 25 38 26 18 0 17 1 -1 9 -19 8 -19 9 3 9 13 1 20 5 17 11
-3 6 2 10 12 11 16 0 16 1 -2 10 -14 6 -7 8 25 4 32 -4 39 -2 25 4 -18 9 -18
10 -2 10 10 1 15 6 12 11 -3 6 0 10 9 10 8 0 19 12 25 28 l11 27 -5 -30 -4
-30 14 30 c8 17 14 23 15 15 0 -10 3 -11 8 -4 4 6 24 17 44 23 21 7 41 19 46
27 4 8 32 22 61 33 29 10 57 24 61 31 5 7 17 14 27 15 10 0 25 5 33 10 8 5 22
11 31 12 8 1 29 9 45 18 16 8 37 15 46 15 9 0 20 5 23 10 3 6 22 10 41 10 19
0 34 4 34 10 0 5 17 12 38 16 20 4 42 9 47 13 20 12 95 28 125 26 16 -1 30 2
30 8 0 5 8 6 18 2 9 -4 64 -7 122 -6z m1601 -16 c13 -16 12 -17 -3 -4 -10 7
-18 15 -18 17 0 8 8 3 21 -13z m-4371 -12 c0 -14 -18 -23 -31 -15 -8 4 -7 9 2
15 18 11 29 11 29 0z m40 -32 c0 -11 -4 -17 -10 -14 -5 3 -10 13 -10 21 0 8 5
14 10 14 6 0 10 -9 10 -21z m-22 -33 c4 -18 3 -19 -13 -3 -23 24 -29 21 -11
-5 9 -12 16 -29 16 -38 0 -13 -1 -13 -10 0 -9 13 -10 13 -10 0 0 -9 5 -21 11
-27 7 -7 6 -12 -6 -17 -9 -3 -18 0 -21 9 -8 19 -33 19 -40 0 -9 -22 -24 -18
-24 5 0 16 7 20 33 21 23 1 26 3 10 6 -13 2 -23 9 -23 14 0 6 5 7 12 3 7 -4 8
-3 4 4 -4 7 -15 12 -24 13 -10 0 -6 5 11 11 15 5 24 14 21 20 -4 6 7 8 27 6
24 -2 35 -9 37 -22z m4727 -57 c4 -6 13 -8 20 -5 9 3 11 -2 8 -15 -3 -11 -2
-19 3 -18 20 5 61 -24 73 -52 8 -19 18 -28 27 -25 8 3 17 -1 20 -9 4 -8 10
-15 15 -15 15 0 59 -50 78 -91 28 -57 36 -100 20 -109 -14 -9 -49 9 -49 25 -1
16 -97 135 -104 128 -3 -4 -6 -1 -6 6 0 7 -14 31 -31 52 -17 21 -27 39 -23 39
4 0 1 6 -7 13 -25 20 -71 87 -60 87 5 0 13 -5 16 -11z m-4655 -80 c-12 -16
-24 -28 -27 -26 -4 5 37 57 44 57 3 0 -5 -14 -17 -31z m-130 -9 c0 -11 -2 -20
-4 -20 -2 0 -6 9 -9 20 -3 11 -1 20 4 20 5 0 9 -9 9 -20z m880 -145 c-7 -8
-16 -13 -20 -10 -5 3 -12 0 -16 -6 -4 -8 -3 -9 4 -5 7 4 12 4 12 -1 -1 -12
-100 -120 -100 -109 0 6 -6 2 -13 -8 -13 -17 -14 -18 -20 -2 -5 11 -3 15 5 10
7 -5 9 -2 5 9 -3 9 3 26 14 39 11 13 17 17 13 9 -4 -9 -3 -12 4 -7 6 4 9 13 6
20 -3 8 4 20 15 28 12 8 18 17 15 20 -3 3 0 9 7 14 8 4 10 3 5 -4 -4 -7 -2
-12 4 -12 6 0 15 11 22 25 6 13 15 22 19 19 5 -3 9 3 10 13 0 15 2 14 11 -4 8
-17 8 -26 -2 -38z m4281 -44 l18 -36 -25 30 c-14 17 -34 48 -45 70 l-20 40 27
-34 c15 -18 36 -50 45 -70z m-4454 -201 c-29 -66 -28 -78 3 -27 30 48 24 26
-12 -47 -17 -36 -35 -63 -40 -60 -4 3 -8 -4 -8 -15 0 -11 -6 -26 -12 -33 -7
-8 -36 -59 -64 -113 -33 -65 -64 -110 -87 -129 -21 -16 -40 -27 -43 -24 -3 4
8 33 25 65 16 32 46 101 67 153 46 120 85 191 137 256 53 66 68 54 34 -26z
m4621 -315 c0 -31 -4 -31 -19 -4 -8 15 -8 19 0 15 6 -4 11 -2 11 3 0 6 2 11 4
11 2 0 4 -11 4 -25z m-7 -62 c-12 -20 -14 -14 -5 12 4 9 9 14 11 11 3 -2 0
-13 -6 -23z m-101 -59 c12 -36 20 -74 17 -85 -3 -10 -1 -17 4 -13 5 3 9 -12 9
-33 0 -21 5 -56 10 -78 11 -47 36 -200 44 -264 9 -85 -12 -24 -58 164 -25 105
-49 201 -53 214 -4 16 -3 22 5 17 8 -4 8 3 1 26 -12 42 -11 51 1 43 6 -3 10
-16 11 -28 0 -12 3 -17 5 -10 3 6 -2 32 -10 58 -17 49 -18 55 -12 55 2 0 14
-30 26 -66z m-1341 19 c38 -38 42 -90 37 -513 -2 -227 -9 -436 -15 -475 -14
-82 -31 -136 -43 -129 -4 3 -8 -7 -8 -21 0 -20 -4 -26 -15 -21 -8 3 -15 2 -16
-2 -2 -20 -8 -44 -12 -48 -14 -14 -27 1175 -14 1210 9 22 63 21 86 -1z m1749
-44 c38 -70 111 -301 127 -402 27 -176 38 -374 30 -572 -12 -299 -22 -331 -24
-75 -2 349 -16 448 -107 765 -31 104 -57 206 -59 225 -2 19 -8 46 -13 60 -11
29 -5 53 11 47 6 -2 22 -23 35 -48z m-231 -21 c-3 -8 -6 -5 -6 6 -1 11 2 17 5
13 3 -3 4 -12 1 -19z m14 -67 c7 11 9 9 9 -8 0 -17 -6 -23 -21 -23 -15 0 -19
4 -15 16 3 9 7 25 7 37 2 15 3 13 6 -7 4 -22 7 -26 14 -15z m19 -72 c0 -10 -4
-19 -10 -19 -5 0 -10 12 -10 26 0 14 4 23 10 19 6 -3 10 -15 10 -26z m-33 -11
c-3 -7 -5 -2 -5 12 0 14 2 19 5 13 2 -7 2 -19 0 -25z m-3678 -120 c-1 -104 -3
-133 -10 -108 -8 31 -1 250 7 250 2 0 4 -64 3 -142z m3731 65 c0 -7 -7 -13
-15 -13 -16 0 -19 9 -9 35 5 13 8 14 15 3 5 -7 9 -19 9 -25z m-5607 -62 c-7
-11 -11 -79 -12 -173 0 -85 -5 -167 -11 -182 -15 -40 -12 -305 4 -432 48 -361
81 -529 116 -594 6 -11 7 -20 2 -20 -4 0 -13 12 -19 28 -16 41 -15 0 2 -73 35
-151 45 -198 41 -202 -14 -14 -48 53 -71 140 -15 56 -38 139 -50 184 -36 125
-52 217 -85 478 -44 338 -48 485 -21 650 21 124 57 230 84 247 18 11 34 -29
20 -51z m5619 -18 c5 -7 7 -21 3 -32 -3 -11 0 -23 6 -27 8 -5 10 -2 7 8 -4 8
-2 21 3 29 6 10 9 6 9 -16 0 -24 2 -27 11 -15 7 11 8 6 4 -19 -6 -26 -4 -32 6
-26 9 6 11 2 7 -13 -4 -12 -2 -22 3 -22 6 0 10 -19 10 -42 0 -24 2 -83 5 -133
6 -99 -2 -198 -16 -190 -5 3 -6 13 -3 23 6 15 5 15 -10 3 -9 -7 -17 -12 -18
-10 0 2 -3 13 -5 24 -3 11 -6 29 -9 40 -4 23 -23 168 -31 235 -3 25 -7 50 -9
57 -2 7 -1 15 4 17 4 3 7 40 6 83 -1 43 0 69 3 58 2 -11 9 -25 14 -32z m207
-83 c0 -9 -4 -8 -9 5 -5 11 -9 27 -9 35 0 9 4 8 9 -5 5 -11 9 -27 9 -35z m36
-250 c23 -216 30 -496 16 -630 -17 -169 -70 -414 -79 -362 -2 12 -7 22 -12 22
-4 0 -6 -8 -3 -19 3 -10 -1 -22 -8 -26 -9 -6 -11 3 -6 41 3 29 2 41 -2 29 -10
-24 -41 -128 -46 -156 -2 -11 -6 -28 -9 -37 -3 -9 -2 -23 3 -30 7 -12 41 51
64 121 4 9 12 17 18 17 19 0 4 -88 -26 -155 -36 -83 -43 -90 -66 -63 -11 11
-21 19 -23 17 -2 -2 -11 -28 -20 -57 -10 -29 -57 -132 -105 -230 -49 -97 -98
-200 -109 -228 -41 -99 -201 -360 -305 -499 -282 -374 -665 -692 -1010 -836
-67 -28 -123 -53 -125 -54 -5 -4 59 3 88 10 l25 6 -25 -16 -25 -16 24 5 c47
10 4 -13 -109 -57 -380 -149 -737 -212 -1175 -208 -380 4 -388 4 -419 29 -16
12 -35 22 -42 22 -28 0 -14 30 14 31 15 1 -4 7 -43 13 -38 7 -106 22 -150 34
-159 42 -425 79 -465 64 -20 -7 -13 -10 40 -16 95 -10 244 -38 250 -46 3 -4
70 -24 150 -43 224 -55 244 -68 65 -43 -103 15 -219 21 -315 16 l-55 -2 55
-12 c52 -10 46 -11 -110 -17 -91 -4 -210 -14 -265 -23 -55 -10 -157 -26 -226
-36 -70 -10 -153 -25 -185 -33 -140 -35 -191 -27 -342 53 -98 53 -107 57 -96
38 4 -7 3 -8 -5 -4 -6 4 -9 12 -6 17 4 5 -3 9 -14 9 -11 0 -26 7 -35 15 -8 8
-18 15 -23 15 -5 0 -37 29 -72 65 -35 36 -59 65 -53 65 6 0 14 -5 17 -10 7
-12 65 -43 65 -35 0 3 -25 30 -55 60 -56 56 -64 77 -10 27 17 -16 32 -29 35
-29 14 -1 69 -41 64 -46 -3 -3 3 -3 15 0 13 3 38 -6 70 -27 41 -26 53 -29 70
-20 12 6 21 13 21 15 0 3 -35 31 -78 62 -202 149 -279 222 -460 437 -42 50
-106 123 -143 161 -118 123 -220 255 -345 443 -73 110 -81 127 -72 148 6 13
15 21 19 18 5 -3 9 2 9 10 0 9 4 16 9 16 5 0 18 17 28 38 13 28 24 37 43 37
28 1 45 -19 160 -188 40 -59 98 -138 129 -175 31 -37 102 -121 157 -187 187
-222 570 -550 881 -754 45 -29 85 -60 88 -70 5 -15 48 -41 68 -41 5 0 85 30
177 66 l167 67 -64 33 c-70 36 -266 172 -355 247 -31 26 -61 47 -66 47 -21 0
-255 255 -353 385 -121 160 -168 233 -240 377 -28 55 -90 167 -138 247 -127
212 -233 478 -230 581 0 19 3 29 6 22 2 -6 8 -10 13 -7 4 3 15 -10 23 -28 9
-18 26 -42 38 -53 l22 -19 -8 25 c-4 14 -12 28 -17 31 -6 4 -7 9 -1 12 5 4 30
-44 55 -106 52 -127 137 -325 174 -406 14 -29 23 -55 22 -57 -4 -3 -53 90 -67
128 -8 20 -15 25 -30 21 -15 -4 -23 1 -30 18 -10 24 -10 24 -10 2 -1 -12 20
-62 46 -110 26 -49 59 -113 74 -144 15 -30 34 -61 43 -68 18 -15 22 -36 4 -25
-7 4 -8 3 -4 -5 4 -6 11 -9 15 -7 9 6 70 -54 69 -67 -1 -13 36 -77 44 -77 5 0
8 -6 8 -13 0 -7 10 -26 23 -43 22 -29 47 -42 47 -24 0 6 -3 10 -8 10 -4 0 -13
14 -20 30 -8 17 -19 36 -25 43 -7 7 -25 27 -41 45 -17 18 -25 32 -19 32 5 0
30 -25 54 -56 24 -31 70 -89 102 -130 34 -43 55 -78 51 -85 -4 -7 -3 -9 3 -6
10 6 63 -63 63 -82 0 -5 19 -26 43 -47 45 -40 72 -74 47 -59 -9 5 -11 4 -6 -3
4 -7 15 -12 24 -12 12 0 13 -3 5 -11 -12 -12 -56 -2 -48 11 7 12 -22 33 -36
25 -8 -5 -9 -1 -4 15 5 14 3 20 -3 16 -16 -10 -44 5 -38 20 3 8 1 14 -3 14 -5
0 -17 3 -26 7 -14 5 -13 1 4 -19 55 -63 129 -138 136 -138 4 0 0 9 -9 19 -17
19 -17 19 3 14 19 -5 25 -15 22 -35 0 -5 3 -7 8 -5 5 1 31 -15 58 -35 57 -43
195 -173 173 -163 -8 4 -1 -4 15 -19 17 -14 34 -25 38 -26 5 0 5 -5 1 -12 -4
-6 -3 -8 4 -4 17 10 199 -105 269 -170 15 -15 49 -37 75 -49 26 -12 45 -25 42
-27 -3 -3 41 -4 98 -1 108 5 97 7 462 -71 407 -87 775 -101 1091 -40 694 134
1132 380 1618 909 272 296 504 695 648 1115 28 82 46 120 54 116 12 -4 37 39
37 61 0 4 4 13 10 20 5 6 9 38 9 70 0 35 8 84 22 123 26 78 37 93 52 73 18
-24 43 -4 50 38 4 22 4 43 1 46 -3 4 -6 -6 -6 -22 0 -16 -3 -26 -6 -22 -4 3 2
58 11 122 16 101 17 159 11 428 -7 346 -7 321 -2 362 3 17 5 37 6 45 4 28 20
-75 35 -220z m-5768 188 c-3 -8 -6 -5 -6 6 -1 11 2 17 5 13 3 -3 4 -12 1 -19z
m20 -20 c-3 -8 -6 -5 -6 6 -1 11 2 17 5 13 3 -3 4 -12 1 -19z m5919 -93 c8
-27 14 -61 13 -75 0 -20 -3 -17 -14 15 -8 21 -12 41 -10 43 2 2 -5 29 -16 59
-10 31 -19 59 -19 62 1 16 34 -59 46 -104z m839 -290 c-11 -463 -40 -728 -121
-1095 -42 -193 -111 -417 -192 -627 -63 -165 -74 -92 -13 88 21 63 66 193 100
289 72 208 114 387 141 599 10 86 29 233 41 326 16 127 23 243 27 460 3 205 7
283 14 265 6 -16 8 -128 3 -305z m-78 -27 c-2 -35 -3 -9 -3 57 0 66 1 94 3 63
2 -32 2 -86 0 -120z m-4008 -15 c-6 -40 4 -58 223 -386 21 -32 43 -69 48 -83
5 -13 14 -24 19 -24 9 0 18 -25 31 -85 5 -23 -1 -35 -20 -35 -11 0 -20 -6 -20
-12 -1 -7 -8 -1 -16 15 -8 15 -12 33 -8 40 5 7 0 6 -12 -3 -10 -8 -16 -11 -12
-6 6 8 -116 178 -133 184 -5 2 -9 9 -9 17 0 7 -8 19 -17 26 -9 8 -29 34 -45
58 -15 25 -28 43 -28 40 0 -3 -37 30 -82 73 -46 43 -92 83 -103 89 -11 6 -8 1
7 -11 45 -35 287 -353 400 -526 165 -252 297 -422 439 -568 156 -161 178 -173
282 -156 38 6 73 7 79 4 7 -5 8 -2 3 6 -6 10 -4 12 8 7 24 -9 175 48 235 90
66 45 164 151 199 216 14 26 30 47 34 47 12 0 32 -100 25 -132 -10 -51 -70
-121 -163 -190 -164 -122 -257 -155 -467 -164 -189 -9 -226 -3 -277 46 -26 24
-38 43 -33 51 4 7 3 10 -3 6 -6 -4 -16 6 -23 22 -6 16 -20 37 -31 47 -10 9
-19 21 -19 26 0 4 -7 16 -16 26 -45 50 -317 433 -311 438 2 3 28 -27 57 -66
28 -38 54 -70 56 -70 5 0 -52 96 -93 157 -32 47 -53 60 -53 32 0 -6 4 -8 8 -5
4 2 9 -5 9 -17 2 -26 -2 -21 -111 138 -176 254 -204 298 -199 311 3 7 -13 32
-36 56 -24 26 -39 49 -35 58 3 8 2 11 -2 8 -7 -7 -105 67 -104 78 1 3 -22 17
-49 30 -53 24 -63 39 -33 48 52 15 201 37 282 41 51 3 95 7 98 10 8 8 22 6 21
-2z m241 -84 c0 -6 -4 -7 -10 -4 -5 3 -10 11 -10 16 0 6 5 7 10 4 6 -3 10 -11
10 -16z m-2473 -176 c-3 -10 -5 -4 -5 12 0 17 2 24 5 18 2 -7 2 -21 0 -30z m3
-123 c-10 -23 -10 -22 -5 9 3 18 6 45 7 60 1 19 2 16 5 -9 2 -20 -1 -47 -7
-60z m-13 -92 c-3 -8 -6 -5 -6 6 -1 11 2 17 5 13 3 -3 4 -12 1 -19z m4930 -10
c-3 -8 -6 -5 -6 6 -1 11 2 17 5 13 3 -3 4 -12 1 -19z m-759 -292 c-3 -99 -6
-118 -25 -144 -12 -16 -47 -87 -78 -158 -143 -324 -205 -412 -370 -522 -61
-40 -141 -89 -180 -109 -38 -19 -77 -41 -85 -48 -23 -19 -225 -27 -387 -15
-215 15 -510 82 -564 127 -26 22 -28 29 -23 66 4 23 10 47 14 52 20 28 17 52
-11 71 -52 35 -30 34 42 -2 93 -46 110 -53 199 -75 129 -33 286 -44 425 -31
154 16 245 41 360 100 108 55 219 159 284 267 23 39 67 99 96 135 30 36 84
124 122 197 37 72 72 138 78 146 10 14 83 56 98 57 5 0 7 -51 5 -114z m1028
-80 c-21 -49 -28 -46 -9 4 9 22 18 38 20 36 2 -2 -3 -20 -11 -40z m-5582 -92
c3 -8 2 -12 -4 -9 -6 3 -10 10 -10 16 0 14 7 11 14 -7z m3232 -22 c-2 -1 -17
-4 -35 -7 -27 -3 -30 -1 -21 15 8 15 14 16 34 7 14 -7 23 -13 22 -15z m-3175
-10 c11 -29 5 -28 -16 4 -11 17 -12 25 -4 22 6 -2 16 -14 20 -26z m3199 -16
c0 -2 -9 -6 -20 -9 -11 -3 -18 -1 -14 4 5 9 34 13 34 5z m2330 -84 c-87 -260
-290 -641 -497 -934 -38 -54 -127 -167 -198 -251 -111 -132 -132 -152 -142
-138 -10 14 -11 12 -9 -11 2 -15 0 -25 -5 -23 -8 6 -24 -14 -24 -30 0 -5 -6
-10 -12 -10 -7 0 -12 -3 -10 -6 3 -9 -76 -94 -86 -91 -5 1 -6 -1 -4 -5 3 -5
-29 -44 -71 -88 -41 -44 -68 -71 -59 -59 13 16 14 23 4 34 -10 12 -9 12 4 2
16 -12 29 -7 29 10 0 5 -4 6 -10 3 -24 -15 -5 12 63 90 39 46 77 82 83 80 6
-2 17 1 25 7 11 8 10 9 -4 4 -15 -5 -16 -3 -7 14 6 11 15 20 21 20 6 0 7 5 4
10 -4 6 -1 9 7 8 7 -2 12 3 10 10 -1 8 2 11 8 7 5 -3 10 0 10 8 0 7 14 26 30
42 17 16 29 36 28 44 -2 9 3 15 10 14 6 -2 12 3 12 10 0 6 17 31 38 53 55 61
114 133 132 159 8 13 54 79 101 146 163 234 387 614 424 720 26 73 109 242
113 229 2 -6 -6 -42 -18 -78z m-4295 -142 c10 -11 16 -20 13 -20 -3 0 -13 9
-23 20 -10 11 -16 20 -13 20 3 0 13 -9 23 -20z m1636 -238 c-7 -2 -18 1 -23 6
-8 8 -4 9 13 5 13 -4 18 -8 10 -11z m49 -12 c0 -5 -7 -7 -15 -4 -8 4 -15 8
-15 10 0 2 7 4 15 4 8 0 15 -4 15 -10z m40 -10 c8 -5 11 -10 5 -10 -5 0 -17 5
-25 10 -8 5 -10 10 -5 10 6 0 17 -5 25 -10z m-1957 -80 c15 -25 16 -30 3 -30
-19 0 -74 71 -68 89 3 9 0 11 -8 6 -9 -6 -11 -4 -5 4 9 15 50 -21 78 -69z
m3042 -77 c-25 -24 -137 -83 -182 -97 -46 -14 -22 13 27 30 28 10 50 21 50 25
0 4 25 17 55 29 30 12 53 25 50 29 -2 4 3 8 11 8 11 0 7 -8 -11 -24z m-1608
11 c-3 -3 -12 -4 -19 -1 -8 3 -5 6 6 6 11 1 17 -2 13 -5z m-2085 -111 c6 -7 8
-13 5 -13 -8 0 -67 82 -67 93 0 6 12 -8 26 -29 15 -21 31 -45 36 -51z m2273
47 c3 -6 -1 -7 -9 -4 -18 7 -21 14 -7 14 6 0 13 -4 16 -10z m1803 -51 c-29
-48 -244 -236 -356 -311 -216 -145 -448 -264 -627 -321 -109 -35 -242 -64
-251 -54 -3 2 15 7 38 11 57 9 213 54 263 77 22 9 94 41 159 69 139 59 217
102 366 199 117 76 343 265 393 328 23 29 31 30 15 2z m-2838 -479 c8 -5 11
-10 5 -10 -5 0 -17 5 -25 10 -8 5 -10 10 -5 10 6 0 17 -5 25 -10z m-783 -142
c25 -23 30 -38 12 -38 -5 0 -7 5 -4 10 3 6 -3 10 -14 10 -11 0 -25 9 -31 20
-15 28 7 27 37 -2z m2236 -95 c-7 -2 -19 -2 -25 0 -7 3 -2 5 12 5 14 0 19 -2
13 -5z m1357 -298 c0 -1 -7 -8 -15 -15 -13 -11 -14 -10 -9 5 6 14 4 16 -6 10
-8 -5 -11 -4 -6 3 5 9 36 7 36 -3z m-4245 -165 c3 -5 1 -10 -4 -10 -6 0 -11 5
-11 10 0 6 2 10 4 10 3 0 8 -4 11 -10z m2611 -257 c3 -10 10 -27 15 -38 7 -15
8 -12 3 13 -9 50 13 39 29 -16 8 -26 24 -97 37 -157 12 -61 28 -143 37 -182 8
-40 18 -73 23 -73 25 0 19 73 -20 225 -39 156 -48 202 -32 179 4 -7 15 -8 27
-4 17 6 24 0 42 -39 13 -25 20 -35 17 -21 -3 14 -8 34 -10 45 -4 16 -3 17 5 5
16 -25 71 -220 72 -254 0 -44 39 -71 112 -80 36 -4 56 -3 53 3 -4 5 -1 13 5
17 7 4 8 9 1 13 -9 5 -182 308 -182 317 0 15 30 -4 78 -48 39 -36 45 -40 20
-12 -37 39 -50 62 -26 48 8 -5 9 -2 5 9 -10 26 10 17 108 -49 104 -71 315
-195 395 -233 62 -30 116 -74 123 -101 8 -31 -27 -52 -144 -82 -273 -70 -780
-120 -1010 -100 -147 13 -506 72 -622 101 -112 29 -161 69 -123 100 13 11 30
9 143 -14 12 -3 28 -11 35 -18 7 -8 33 -16 58 -20 30 -4 38 -3 25 3 -19 8 -18
9 4 9 30 1 25 6 -14 15 -22 5 -26 4 -15 -4 8 -5 11 -10 5 -10 -5 0 -21 9 -35
20 -14 11 -33 20 -42 20 -9 0 -20 5 -23 10 -4 6 -15 8 -26 5 -10 -4 -19 -2
-19 3 0 11 36 18 135 27 106 9 118 13 160 50 21 19 36 35 32 35 -4 0 36 43 88
95 53 53 100 93 105 90 5 -3 17 6 26 20 9 13 20 23 24 20 5 -3 11 1 14 7 23
51 -55 -245 -86 -324 -6 -15 -14 -25 -19 -22 -5 3 -9 -2 -9 -10 0 -9 3 -16 8
-16 4 0 5 -22 4 -50 -2 -27 0 -50 5 -50 4 0 24 -4 44 -9 l36 -8 41 171 c23 94
48 205 56 246 9 49 14 65 16 45 l2 -30 8 30 c10 37 4 -55 -16 -220 -8 -66 -14
-147 -14 -181 l0 -62 35 -6 c66 -13 71 -6 79 96 3 50 6 175 7 277 1 102 4 176
7 163 9 -31 26 -33 30 -3 3 19 6 21 13 10 7 -11 9 -11 9 4 0 9 5 17 10 17 6 0
13 -8 16 -17z m-326 -73 c-6 -12 -14 -19 -17 -17 -2 3 1 15 7 27 6 12 14 19
17 17 2 -3 -1 -15 -7 -27z m-1015 -80 c151 -49 164 -52 246 -48 48 1 86 0 84
-3 -2 -3 10 -3 27 -1 45 7 29 -11 -55 -60 -89 -52 -154 -99 -162 -117 -4 -11
-2 -11 8 -3 8 7 17 9 20 5 4 -3 7 -2 7 4 0 6 11 14 25 17 17 4 23 11 19 19 -4
7 -4 9 1 5 4 -4 15 -2 24 4 10 8 8 3 -4 -12 -36 -45 -55 -61 -65 -55 -6 3 -10
2 -10 -3 0 -11 -61 -14 -78 -3 -30 18 31 111 74 111 27 0 14 16 -23 27 -69 20
-197 70 -286 112 -49 23 -93 41 -98 41 -6 0 -7 5 -4 11 12 18 86 3 250 -51z
m812 -87 c-9 -10 -31 -27 -49 -37 -39 -22 -27 -7 22 28 42 30 48 31 27 9z
m1731 -92 c2 -30 0 -57 -5 -62 -4 -4 -36 -11 -70 -14 -68 -8 -74 -4 -86 63 -6
30 -5 32 21 32 15 0 45 9 67 20 60 28 70 23 73 -39z"/>
<path d="M5140 8128 c-248 -20 -414 -39 -429 -49 -12 -8 -9 -9 15 -5 86 14
391 27 566 24 108 -2 193 1 189 5 -4 4 -70 9 -147 9 -145 2 -146 3 -24 17 l75
8 -70 0 c-38 0 -117 -4 -175 -9z"/>
<path d="M4473 8087 c-57 -22 -101 -43 -98 -45 2 -2 17 0 32 5 15 6 38 7 50 2
15 -5 25 -3 34 7 6 8 43 24 81 35 53 16 67 24 58 33 -9 8 -14 8 -17 -1 -3 -7
-11 -13 -19 -13 -9 0 -12 5 -9 10 9 14 1 12 -112 -33z"/>
<path d="M4665 8072 c-6 -5 -30 -15 -55 -23 -52 -16 -120 -48 -104 -49 6 0 37
11 68 25 31 14 62 25 69 25 16 0 56 29 42 30 -6 0 -15 -4 -20 -8z"/>
<path d="M6050 8036 c0 -2 9 -6 20 -9 11 -3 18 -1 14 4 -5 9 -34 13 -34 5z"/>
<path d="M4310 8020 c-8 -5 -10 -10 -5 -10 6 0 17 5 25 10 8 5 11 10 5 10 -5
0 -17 -5 -25 -10z"/>
<path d="M5690 8002 c8 -5 47 -15 85 -21 191 -33 326 -83 635 -234 69 -34 131
-60 139 -59 7 2 10 -1 7 -6 -3 -5 2 -9 11 -8 10 0 18 -6 18 -14 0 -9 8 -14 19
-12 11 2 15 -1 11 -8 -4 -6 -1 -9 7 -8 7 2 12 -2 11 -9 -2 -7 4 -10 12 -7 8 4
15 1 15 -5 0 -9 61 -71 245 -243 43 -41 75 -64 84 -60 22 8 -233 251 -377 359
-136 103 -199 140 -319 188 -49 20 -96 40 -105 45 -10 6 -27 10 -37 10 -11 0
-22 4 -25 9 -8 12 -74 26 -111 23 -24 -2 -27 -1 -15 8 12 10 11 11 -7 7 -13
-3 -23 -2 -23 3 0 11 -39 20 -45 10 -5 -8 -34 -4 -65 8 -21 7 -19 7 -75 15
-27 4 -63 10 -80 13 -21 3 -25 2 -15 -4z m630 -167 c14 -8 21 -14 15 -14 -5 0
-21 6 -35 14 -14 8 -20 14 -15 14 6 0 21 -6 35 -14z m206 -131 c18 -14 18 -14
-6 -3 -31 14 -36 19 -24 19 6 0 19 -7 30 -16z"/>
<path d="M4225 7946 c-19 -8 -25 -15 -17 -20 7 -4 12 -3 12 1 0 5 12 14 28 20
15 6 23 11 17 11 -5 1 -23 -5 -40 -12z"/>
<path d="M4095 7885 c-49 -23 -96 -40 -104 -37 -9 3 -12 1 -8 -5 4 -7 -4 -14
-20 -18 -25 -5 -45 -17 -145 -83 -16 -11 -25 -22 -20 -26 4 -4 0 -7 -8 -6 -29
4 -42 0 -37 -13 3 -8 -4 -14 -16 -15 -18 -1 -19 1 -7 9 15 10 9 9 -64 -6 -13
-3 -26 -11 -29 -18 -3 -9 10 -12 48 -12 29 0 51 3 49 6 -2 4 8 10 21 13 16 4
23 11 19 18 -4 7 -3 8 5 4 6 -4 17 -3 24 2 21 17 136 82 271 152 144 76 159
100 21 35z"/>
<path d="M3785 7902 c-17 -10 -36 -17 -43 -14 -6 2 -12 -1 -12 -7 0 -6 -12
-11 -26 -11 -16 0 -23 -4 -18 -12 4 -6 3 -8 -4 -4 -11 7 -244 -131 -332 -197
-78 -58 -196 -179 -345 -352 -103 -120 -118 -141 -75 -105 29 24 99 96 156
160 57 63 129 138 161 166 97 85 272 212 352 256 81 44 221 129 221 135 0 5
-4 4 -35 -15z"/>
<path d="M3515 7613 c-77 -74 -85 -83 -35 -42 67 54 154 139 142 139 -4 -1
-52 -44 -107 -97z"/>
<path d="M3312 7423 c-50 -54 -109 -123 -132 -153 -40 -52 -32 -45 47 43 18
21 37 35 42 32 5 -2 8 2 7 9 0 8 26 43 60 78 59 61 80 88 71 88 -3 0 -46 -44
-95 -97z"/>
<path d="M3255 7319 c-4 -6 -5 -12 -2 -15 2 -3 7 2 10 11 7 17 1 20 -8 4z"/>
<path d="M3090 7165 c-7 -9 -11 -17 -9 -20 3 -2 10 5 17 15 14 24 10 26 -8 5z"/>
<path d="M7040 7135 c13 -14 26 -25 28 -25 3 0 -5 11 -18 25 -13 14 -26 25
-28 25 -3 0 5 -11 18 -25z"/>
<path d="M2797 7073 c-4 -3 -7 -11 -7 -17 0 -6 5 -5 12 2 6 6 9 14 7 17 -3 3
-9 2 -12 -2z"/>
<path d="M2634 6665 c-3 -14 -13 -25 -21 -25 -8 0 -11 -5 -7 -11 3 -6 2 -14
-3 -18 -6 -3 -25 -34 -42 -69 -27 -53 -29 -62 -13 -53 11 6 22 8 25 4 6 -6 58
100 75 154 6 19 6 35 1 38 -4 3 -11 -6 -15 -20z"/>
<path d="M7630 6335 c0 -5 5 -17 10 -25 5 -8 10 -10 10 -5 0 6 -5 17 -10 25
-5 8 -10 11 -10 5z"/>
<path d="M7657 6269 c4 -13 8 -18 11 -10 2 7 -1 18 -6 23 -8 8 -9 4 -5 -13z"/>
<path d="M2403 5645 c0 -22 2 -30 4 -17 2 12 2 30 0 40 -3 9 -5 -1 -4 -23z"/>
<path d="M2392 5570 c0 -14 2 -19 5 -12 2 6 2 18 0 25 -3 6 -5 1 -5 -13z"/>
<path d="M2768 3864 c-5 -4 -7 -26 -7 -48 1 -23 3 -33 6 -24 3 11 11 15 21 12
11 -4 13 -3 5 3 -6 4 -13 21 -15 36 -1 16 -6 25 -10 21z"/>
<path d="M3110 3362 c0 -5 10 -17 21 -28 22 -19 22 -19 10 3 -12 24 -31 39
-31 25z"/>
<path d="M5475 7381 c83 -22 176 -51 209 -66 32 -14 60 -24 63 -22 9 9 -169
78 -247 96 -160 36 -175 31 -25 -8z"/>
<path d="M5715 7403 c6 -5 36 -24 67 -41 42 -23 59 -28 64 -19 4 6 4 9 0 5 -5
-4 -38 10 -74 29 -37 20 -62 32 -57 26z"/>
<path d="M5876 7352 c-2 -4 4 -9 15 -9 11 -1 17 2 14 8 -7 11 -22 12 -29 1z"/>
<path d="M5777 7259 c7 -7 15 -10 18 -7 3 3 -2 9 -12 12 -14 6 -15 5 -6 -5z"/>
<path d="M7266 3965 c-3 -9 -6 -22 -5 -28 0 -7 5 -1 10 12 5 13 8 26 5 28 -2
2 -6 -3 -10 -12z"/>
<path d="M7232 3875 c-12 -25 -20 -45 -17 -45 7 0 47 81 43 86 -3 2 -14 -17
-26 -41z"/>
<path d="M7226 3483 c-6 -14 -5 -15 5 -6 7 7 10 15 7 18 -3 3 -9 -2 -12 -12z"/>
<path d="M3270 3355 c30 -30 57 -55 59 -55 3 0 -19 25 -49 55 -30 30 -57 55
-59 55 -3 0 19 -25 49 -55z"/>
<path d="M3375 3250 c10 -11 20 -20 23 -20 3 0 -3 9 -13 20 -10 11 -20 20 -23
20 -3 0 3 -9 13 -20z"/>
<path d="M7010 3249 c0 -5 5 -7 10 -4 6 3 10 8 10 11 0 2 -4 4 -10 4 -5 0 -10
-5 -10 -11z"/>
<path d="M3805 2771 c14 -14 177 -102 182 -97 2 2 -24 19 -59 39 -91 50 -134
71 -123 58z"/>
<path d="M5978 6663 c7 -3 16 -2 19 1 4 3 -2 6 -13 5 -11 0 -14 -3 -6 -6z"/>
<path d="M6347 6429 c7 -7 15 -10 18 -7 3 3 -2 9 -12 12 -14 6 -15 5 -6 -5z"/>
<path d="M6274 6364 c-34 -24 -97 -62 -140 -84 -44 -22 -73 -40 -66 -40 8 0
45 16 84 35 61 31 92 51 183 119 11 8 16 15 10 15 -5 -1 -38 -21 -71 -45z"/>
<path d="M4750 6390 c-11 -8 -7 -9 15 -4 37 8 45 14 19 14 -10 0 -26 -5 -34
-10z"/>
<path d="M4833 6393 c21 -5 23 -33 2 -33 -15 0 -19 -14 -16 -55 2 -16 -21 -34
-101 -82 -57 -33 -126 -73 -155 -87 -29 -14 -68 -39 -86 -56 l-34 -30 -1 -477
c0 -263 1 -486 4 -495 3 -10 13 -18 22 -18 11 0 13 3 6 8 -16 10 -13 959 3
987 6 12 77 58 158 104 80 46 148 88 151 93 9 14 24 9 24 -9 0 -25 -79 -95
-169 -149 -77 -47 -81 -50 -87 -93 -4 -24 -4 -123 0 -220 4 -97 8 -261 10
-366 2 -148 1 -162 -4 -65 l-6 125 -2 -96 c-1 -53 -5 -124 -9 -159 -5 -52 -4
-62 8 -58 8 3 13 10 12 16 -2 6 3 9 10 6 14 -5 116 57 184 113 43 34 143 152
179 209 10 18 42 65 70 105 28 41 100 159 160 262 59 103 131 213 159 244 31
36 40 50 24 40 -14 -9 -29 -14 -34 -10 -4 5 -5 2 -1 -5 13 -23 -40 -70 -72
-65 -15 2 -36 5 -47 6 -24 2 -56 27 -49 39 3 4 -2 11 -10 14 -9 3 -16 13 -16
20 0 8 -7 17 -15 20 -8 4 -15 12 -15 20 0 8 -3 13 -7 13 -23 -4 -34 4 -47 35
-8 18 -34 55 -59 81 -42 43 -75 59 -142 69 -12 2 -13 1 -2 -1z m392 -333 c5
-8 11 -7 21 1 18 15 18 2 0 -16 -12 -12 -15 -12 -20 1 -3 8 -10 12 -16 9 -5
-3 -10 -1 -10 4 0 14 17 14 25 1z m-174 -317 c-12 -20 -14 -14 -5 12 4 9 9 14
11 11 3 -2 0 -13 -6 -23z m-31 -75 c0 -5 -5 -6 -12 -2 -8 5 -9 2 -4 -11 7 -18
6 -18 -12 -1 -19 16 -20 16 -18 -11 1 -15 4 -33 8 -39 4 -6 1 -11 -6 -11 -9 0
-12 13 -11 41 1 23 3 41 4 41 0 0 12 1 26 1 14 1 25 -2 25 -8z m-90 -112 c0
-3 -4 -8 -10 -11 -5 -3 -10 -1 -10 4 0 6 5 11 10 11 6 0 10 -2 10 -4z"/>
<path d="M4690 6370 c0 -5 7 -7 15 -4 8 4 15 8 15 10 0 2 -7 4 -15 4 -8 0 -15
-4 -15 -10z"/>
<path d="M4779 6365 c-1 -5 -1 -13 -1 -16 1 -3 -5 -6 -12 -6 -6 0 -65 -32
-130 -72 -65 -40 -127 -73 -136 -74 -10 -1 -16 -5 -14 -9 3 -4 -20 -24 -50
-43 -31 -19 -61 -45 -67 -57 -11 -20 -8 -19 21 6 18 15 51 34 72 43 21 8 35
20 31 26 -4 6 -1 7 6 3 7 -5 20 -2 29 6 9 7 31 20 47 29 82 44 225 131 225
137 0 12 -20 37 -21 27z m-24 -45 c-3 -5 -12 -10 -18 -10 -7 0 -6 4 3 10 19
12 23 12 15 0z"/>
<path d="M4590 6335 c-14 -7 -54 -19 -90 -26 -35 -7 -58 -15 -51 -17 19 -6
121 17 146 33 12 7 30 15 40 18 20 5 20 5 0 6 -11 0 -31 -6 -45 -14z"/>
<path d="M4408 6283 c7 -3 16 -2 19 1 4 3 -2 6 -13 5 -11 0 -14 -3 -6 -6z"/>
<path d="M3985 6250 l-20 -9 20 -1 c23 -2 45 -1 135 10 l65 7 -90 1 c-49 0
-99 -3 -110 -8z"/>
<path d="M5429 6233 c-13 -16 -12 -17 4 -4 9 7 17 15 17 17 0 8 -8 3 -21 -13z"/>
<path d="M3900 6220 c-9 -6 -10 -10 -3 -10 6 0 15 5 18 10 8 12 4 12 -15 0z"/>
<path d="M5385 6198 l-20 -21 23 12 c12 6 22 16 22 21 0 13 -2 12 -25 -12z"/>
<path d="M3854 6194 c-18 -14 -18 -15 4 -4 12 6 22 13 22 15 0 8 -5 6 -26 -11z"/>
<path d="M6086 6101 c-3 -4 6 -6 19 -3 14 2 25 6 25 8 0 8 -39 4 -44 -5z"/>
<path d="M3870 6030 c-8 -5 -10 -10 -5 -10 6 0 17 5 25 10 8 5 11 10 5 10 -5
0 -17 -5 -25 -10z"/>
<path d="M3824 6004 c-18 -14 -18 -15 4 -4 12 6 22 13 22 15 0 8 -5 6 -26 -11z"/>
<path d="M5727 5987 c-8 -7 -88 -102 -177 -212 -164 -203 -294 -356 -407 -477
-121 -129 -62 -82 90 72 171 175 280 299 417 475 51 66 97 125 102 132 13 16
-6 25 -25 10z"/>
<path d="M3758 5959 l-33 -31 38 27 c20 15 37 29 37 31 0 10 -12 2 -42 -27z"/>
<path d="M5837 5972 c-16 -9 -69 -67 -118 -129 -49 -61 -140 -169 -202 -240
-115 -131 -345 -370 -331 -343 7 13 5 13 -9 1 -9 -7 -14 -18 -10 -24 3 -5 1
-7 -4 -4 -6 4 -19 -3 -29 -15 -11 -12 -13 -18 -6 -14 11 7 11 4 1 -12 -12 -18
-9 -27 21 -69 19 -26 62 -82 96 -123 34 -41 117 -151 184 -245 237 -328 318
-425 355 -425 15 0 17 -2 6 -9 -10 -7 -5 -11 18 -16 49 -11 91 3 103 33 7 19
8 148 2 417 -12 547 -11 828 4 984 14 147 11 176 -19 168 -14 -4 -19 0 -19 13
0 10 -3 26 -6 35 -6 14 0 16 32 13 33 -3 42 -8 57 -38 l18 -35 -3 45 -3 45
-55 2 c-38 2 -63 -2 -83 -15z"/>
<path d="M3695 5910 c-3 -6 1 -7 9 -4 18 7 21 14 7 14 -6 0 -13 -4 -16 -10z"/>
<path d="M5984 5775 c0 -66 1 -92 3 -57 2 34 2 88 0 120 -2 31 -3 3 -3 -63z"/>
<path d="M5124 5693 c-189 -279 -312 -424 -420 -495 -35 -23 -61 -44 -59 -46
11 -11 110 66 182 141 99 103 280 343 362 480 44 73 14 35 -65 -80z"/>
<path d="M3259 5718 c-13 -29 -34 -67 -46 -85 -21 -31 -21 -33 -3 -33 13 0 26
16 43 53 21 46 41 117 33 117 -1 0 -13 -23 -27 -52z"/>
<path d="M5983 5480 c0 -25 2 -35 4 -22 2 12 2 32 0 45 -2 12 -4 2 -4 -23z"/>
<path d="M5981 5374 c0 -11 3 -14 6 -6 3 7 2 16 -1 19 -3 4 -6 -2 -5 -13z"/>
<path d="M5070 5098 c0 -2 30 -34 66 -73 36 -38 95 -115 132 -170 85 -127 262
-374 273 -381 5 -3 -30 50 -78 118 -48 68 -116 166 -152 218 -35 52 -78 113
-95 135 -72 95 -146 172 -146 153z"/>
<path d="M5136 4838 c31 -54 168 -247 172 -243 3 3 -8 22 -24 43 -17 20 -56
76 -87 125 -32 48 -60 87 -63 87 -3 0 -2 -6 2 -12z"/>
<path d="M4543 4655 c0 -38 2 -53 4 -32 2 20 2 52 0 70 -2 17 -4 1 -4 -38z"/>
<path d="M6352 4450 c0 -19 2 -27 5 -17 2 9 2 25 0 35 -3 9 -5 1 -5 -18z"/>
<path d="M5569 4432 c11 -16 28 -35 38 -43 9 -8 2 5 -17 29 -38 48 -52 57 -21
14z"/>
<path d="M3261 4414 c0 -11 3 -14 6 -6 3 7 2 16 -1 19 -3 4 -6 -2 -5 -13z"/>
<path d="M4536 4042 c-4 -200 -6 -365 -3 -368 6 -7 20 537 15 646 -2 47 -7
-78 -12 -278z"/>
<path d="M5660 4322 c65 -77 112 -102 191 -102 35 0 70 4 78 9 8 5 -4 7 -32 4
-95 -11 -132 2 -210 75 l-71 67 44 -53z"/>
<path d="M3286 4325 c8 -37 14 -45 14 -19 0 10 -5 26 -10 34 -8 11 -9 7 -4
-15z"/>
<path d="M4480 3656 c0 -8 4 -17 9 -20 5 -4 7 3 4 14 -6 23 -13 26 -13 6z"/>
<path d="M3756 3587 c3 -10 9 -15 12 -12 3 3 0 11 -7 18 -10 9 -11 8 -5 -6z"/>
<path d="M4492 3550 c11 -33 26 -44 76 -53 40 -8 41 -2 4 17 -16 8 -40 26 -53
40 -32 34 -40 33 -27 -4z"/>
<path d="M4688 3463 c6 -2 18 -2 25 0 6 3 1 5 -13 5 -14 0 -19 -2 -12 -5z"/>
<path d="M4808 3443 c7 -3 16 -2 19 1 4 3 -2 6 -13 5 -11 0 -14 -3 -6 -6z"/>
<path d="M4358 3433 c12 -2 32 -2 45 0 12 2 2 4 -23 4 -25 0 -35 -2 -22 -4z"/>
<path d="M4448 3423 c6 -2 18 -2 25 0 6 3 1 5 -13 5 -14 0 -19 -2 -12 -5z"/>
<path d="M4518 3413 c6 -2 18 -2 25 0 6 3 1 5 -13 5 -14 0 -19 -2 -12 -5z"/>
<path d="M3876 3394 c-71 -22 -51 -26 24 -4 36 10 56 19 45 19 -11 0 -42 -7
-69 -15z"/>
<path d="M3800 3360 c-9 -6 -10 -10 -3 -10 6 0 15 5 18 10 8 12 4 12 -15 0z"/>
<path d="M7312 6600 c0 -14 2 -19 5 -12 2 6 2 18 0 25 -3 6 -5 1 -5 -13z"/>
<path d="M7320 6559 c0 -5 5 -7 10 -4 6 3 10 8 10 11 0 2 -4 4 -10 4 -5 0 -10
-5 -10 -11z"/>
<path d="M3055 6540 c-3 -6 1 -7 9 -4 18 7 21 14 7 14 -6 0 -13 -4 -16 -10z"/>
<path d="M7826 4093 c-6 -14 -5 -15 5 -6 7 7 10 15 7 18 -3 3 -9 -2 -12 -12z"/>
<path d="M2500 3620 c0 -5 5 -10 10 -10 6 0 10 5 10 10 0 6 -4 10 -10 10 -5 0
-10 -4 -10 -10z"/>
<path d="M2650 3246 c0 -2 8 -10 18 -17 15 -13 16 -12 3 4 -13 16 -21 21 -21
13z"/>
<path d="M2766 3060 c4 -8 23 -38 41 -67 33 -53 53 -73 53 -54 0 6 -5 11 -11
11 -5 0 -7 5 -4 10 3 6 2 10 -4 10 -5 0 -12 8 -16 18 -3 9 -20 33 -37 52 -17
19 -27 28 -22 20z"/>
<path d="M2190 2881 c0 -14 99 -131 110 -131 20 0 9 24 -29 61 -21 21 -36 41
-32 45 3 4 2 5 -4 2 -12 -7 -37 17 -28 26 4 3 1 6 -5 6 -7 0 -12 -4 -12 -9z"/>
<path d="M2915 2850 c15 -17 35 -19 35 -4 0 3 -5 2 -10 -1 -6 -3 -13 1 -16 9
-3 9 -11 16 -17 16 -5 0 -2 -9 8 -20z"/>
<path d="M2346 2705 c4 -8 11 -15 16 -15 6 0 5 6 -2 15 -7 8 -14 15 -16 15 -2
0 -1 -7 2 -15z"/>
<path d="M2390 2657 c1 -7 17 -30 37 -52 30 -34 34 -36 28 -15 -8 27 -65 86
-65 67z"/>
<path d="M2460 2610 c0 -5 5 -10 11 -10 5 0 7 5 4 10 -3 6 -8 10 -11 10 -2 0
-4 -4 -4 -10z"/>
<path d="M2470 2579 c0 -5 5 -7 10 -4 6 3 10 8 10 11 0 2 -4 4 -10 4 -5 0 -10
-5 -10 -11z"/>
<path d="M3250 2486 c0 -2 8 -10 18 -17 15 -13 16 -12 3 4 -13 16 -21 21 -21
13z"/>
<path d="M3320 2430 c47 -42 70 -54 70 -38 0 7 -19 24 -43 38 -61 36 -67 36
-27 0z"/>
<path d="M5628 2013 c7 -3 16 -2 19 1 4 3 -2 6 -13 5 -11 0 -14 -3 -6 -6z"/>
<path d="M4538 1963 c6 -2 18 -2 25 0 6 3 1 5 -13 5 -14 0 -19 -2 -12 -5z"/>
<path d="M4488 1953 c7 -3 16 -2 19 1 4 3 -2 6 -13 5 -11 0 -14 -3 -6 -6z"/>
<path d="M4525 1940 c3 -5 11 -10 16 -10 6 0 7 5 4 10 -3 6 -11 10 -16 10 -6
0 -7 -4 -4 -10z"/>
<path d="M4789 4693 c6 -12 16 -25 21 -28 17 -11 11 5 -11 28 l-21 22 11 -22z"/>
<path d="M4830 4643 c0 -5 11 -24 25 -43 14 -19 25 -31 25 -27 0 3 -11 23 -25
43 -14 20 -25 33 -25 27z"/>
<path d="M4930 4496 c0 -2 8 -10 18 -17 15 -13 16 -12 3 4 -13 16 -21 21 -21
13z"/>
<path d="M5186 4447 c3 -10 9 -15 12 -12 3 3 0 11 -7 18 -10 9 -11 8 -5 -6z"/>
<path d="M5040 4342 c0 -5 6 -16 13 -27 10 -13 16 -15 21 -6 4 6 2 18 -4 26
-13 16 -30 20 -30 7z"/>
<path d="M5364 3933 c46 -60 94 -117 107 -128 12 -11 -24 37 -80 108 -56 70
-104 127 -106 127 -3 0 33 -48 79 -107z"/>
<path d="M6376 3933 c-14 -28 -108 -122 -176 -176 -45 -36 -19 -23 43 21 47
34 157 154 157 173 0 17 -9 10 -24 -18z"/>
<path d="M5450 3935 c0 -10 122 -155 156 -185 16 -14 4 3 -26 38 -30 35 -65
78 -76 95 -23 34 -54 64 -54 52z"/>
<path d="M5490 3776 c0 -2 8 -10 18 -17 15 -13 16 -12 3 4 -13 16 -21 21 -21
13z"/>
<path d="M5540 3715 c13 -14 26 -25 28 -25 3 0 -5 11 -18 25 -13 14 -26 25
-28 25 -3 0 5 -11 18 -25z"/>
<path d="M5600 3646 c0 -2 8 -10 18 -17 15 -13 16 -12 3 4 -13 16 -21 21 -21
13z"/>
<path d="M5738 3593 c12 -2 32 -2 45 0 12 2 2 4 -23 4 -25 0 -35 -2 -22 -4z"/>
<path d="M6716 4215 c-9 -26 -7 -32 5 -12 6 10 9 21 6 23 -2 3 -7 -2 -11 -11z"/>
<path d="M6652 4068 c-29 -60 -51 -112 -49 -114 4 -5 24 35 79 155 48 107 26
77 -30 -41z"/>
<path d="M6567 3921 c-9 -16 -17 -33 -17 -38 0 -4 9 7 21 26 11 18 18 35 17
37 -2 2 -12 -10 -21 -25z"/>
<path d="M5278 3473 c7 -3 16 -2 19 1 4 3 -2 6 -13 5 -11 0 -14 -3 -6 -6z"/>
<path d="M5388 3453 c6 -2 18 -2 25 0 6 3 1 5 -13 5 -14 0 -19 -2 -12 -5z"/>
<path d="M5478 3443 c12 -2 30 -2 40 0 9 3 -1 5 -23 4 -22 0 -30 -2 -17 -4z"/>
<path d="M5568 3323 c6 -2 18 -2 25 0 6 3 1 5 -13 5 -14 0 -19 -2 -12 -5z"/>
<path d="M5665 3310 c52 -9 152 -13 144 -6 -2 2 -47 6 -99 9 -68 4 -81 3 -45
-3z"/>
<path d="M6835 2420 c-3 -5 -1 -10 4 -10 6 0 11 5 11 10 0 6 -2 10 -4 10 -3 0
-8 -4 -11 -10z"/>
<path d="M6810 2390 c-8 -5 -12 -12 -9 -15 4 -3 12 1 19 10 14 17 11 19 -10 5z"/>
<path d="M3306 3508 c35 -41 44 -49 44 -41 0 10 -48 63 -57 63 -3 0 2 -10 13
-22z"/>
<path d="M4740 1718 c-15 -21 -17 -28 -6 -19 16 13 41 51 33 51 -2 0 -14 -15
-27 -32z"/>
<path d="M5520 1686 c0 -2 7 -7 16 -10 8 -3 12 -2 9 4 -6 10 -25 14 -25 6z"/>
<path d="M4669 1623 c-13 -16 -12 -17 4 -4 16 13 21 21 13 21 -2 0 -10 -8 -17
-17z"/>
<path d="M4591 1536 c-41 -42 -47 -66 -15 -66 8 0 14 -4 14 -10 0 -16 37 -12
44 5 3 8 1 15 -4 15 -6 0 -10 7 -10 15 0 8 -7 15 -15 15 -22 0 -19 10 12 42
15 15 25 28 22 28 -3 0 -24 -20 -48 -44z m29 -66 c0 -5 -4 -10 -10 -10 -5 0
-10 5 -10 10 0 6 5 10 10 10 6 0 10 -4 10 -10z"/>
<path d="M5754 1566 c5 -14 2 -17 -10 -12 -9 3 -28 9 -42 12 -22 4 -20 2 8
-11 19 -9 40 -18 45 -19 6 -2 17 -6 25 -9 32 -13 96 -27 120 -27 18 1 3 11
-49 35 -83 39 -85 40 -76 23 4 -7 -1 -4 -11 7 -15 18 -16 18 -10 1z"/>
<path d="M5900 8500 c14 -4 34 -8 45 -8 16 0 15 2 -5 8 -14 4 -34 8 -45 8 -16
0 -15 -2 5 -8z"/>
<path d="M6155 8450 c-7 -11 22 -26 32 -16 4 3 -1 6 -11 6 -9 0 -14 5 -11 10
3 6 4 10 1 10 -3 0 -8 -5 -11 -10z"/>
<path d="M4688 8423 c7 -3 16 -2 19 1 4 3 -2 6 -13 5 -11 0 -14 -3 -6 -6z"/>
<path d="M6200 8426 c0 -2 9 -6 20 -9 11 -3 18 -1 14 4 -5 9 -34 13 -34 5z"/>
<path d="M4510 8400 c-17 -6 -9 -7 25 -3 28 3 52 7 54 9 8 7 -54 2 -79 -6z"/>
<path d="M2814 8378 l-19 -23 23 19 c21 18 27 26 19 26 -2 0 -12 -10 -23 -22z"/>
<path d="M4448 8383 c6 -2 18 -2 25 0 6 3 1 5 -13 5 -14 0 -19 -2 -12 -5z"/>
<path d="M6375 8370 c27 -12 43 -12 25 0 -8 5 -22 9 -30 9 -10 0 -8 -3 5 -9z"/>
<path d="M4348 8363 c7 -3 16 -2 19 1 4 3 -2 6 -13 5 -11 0 -14 -3 -6 -6z"/>
<path d="M7430 8366 c0 -3 9 -10 20 -16 11 -6 20 -8 20 -6 0 3 -9 10 -20 16
-11 6 -20 8 -20 6z"/>
<path d="M2733 8314 c-26 -26 -39 -40 -28 -33 11 8 23 18 26 22 3 5 12 9 20
11 21 3 56 25 41 26 -7 0 -10 5 -7 10 13 21 -5 8 -52 -36z"/>
<path d="M4298 8353 c7 -3 16 -2 19 1 4 3 -2 6 -13 5 -11 0 -14 -3 -6 -6z"/>
<path d="M6293 8315 c-18 -8 -33 -18 -33 -22 0 -18 99 -63 138 -63 35 0 43 4
61 34 12 18 21 36 21 38 0 9 -86 28 -122 28 -18 -1 -48 -7 -65 -15z"/>
<path d="M2655 8248 l-20 -21 23 12 c12 6 22 16 22 21 0 13 -2 12 -25 -12z"/>
<path d="M7550 8060 c17 -22 34 -40 37 -40 2 0 -10 18 -27 40 -17 22 -34 40
-37 40 -2 0 10 -18 27 -40z"/>
<path d="M3494 7984 c-18 -14 -18 -15 4 -4 12 6 22 13 22 15 0 8 -5 6 -26 -11z"/>
<path d="M2345 7970 c-16 -9 -29 -23 -27 -30 1 -6 -1 -9 -6 -6 -5 3 -58 -43
-119 -102 -106 -104 -183 -192 -166 -192 4 1 26 25 48 55 22 30 44 55 48 55 5
0 -7 -21 -27 -47 -62 -82 -116 -167 -116 -183 0 -8 15 7 33 33 47 71 167 218
204 250 18 16 31 33 28 37 -3 5 24 34 59 66 36 31 67 63 70 70 3 8 4 14 3 13
-1 0 -15 -9 -32 -19z m-105 -133 c0 -2 -10 -12 -22 -23 l-23 -19 19 23 c18 21
26 27 26 19z"/>
<path d="M8110 7766 c0 -2 8 -10 18 -17 15 -13 16 -12 3 4 -13 16 -21 21 -21
13z"/>
<path d="M7965 7720 c10 -11 20 -20 23 -20 3 0 -3 9 -13 20 -10 11 -20 20 -23
20 -3 0 3 -9 13 -20z"/>
<path d="M1951 7487 c-13 -21 -12 -21 5 -5 10 10 16 20 13 22 -3 3 -11 -5 -18
-17z"/>
<path d="M1944 7448 l-19 -23 23 19 c21 18 27 26 19 26 -2 0 -12 -10 -23 -22z"/>
<path d="M7410 7442 c6 -13 14 -21 18 -18 3 4 -2 14 -12 24 -18 16 -18 16 -6
-6z"/>
<path d="M1765 7183 c-50 -104 -89 -211 -119 -330 -14 -54 -70 -228 -124 -388
-87 -254 -127 -392 -108 -375 3 4 25 62 50 130 24 69 65 175 91 235 25 61 57
157 71 215 47 200 65 265 101 370 20 58 44 116 53 130 10 14 15 31 12 39 -3 8
0 11 7 7 7 -5 9 -1 4 10 -4 12 -3 15 5 10 8 -5 10 -2 6 8 -3 9 -7 16 -9 16 -1
0 -19 -35 -40 -77z"/>
<path d="M1616 7153 c-6 -14 -5 -15 5 -6 7 7 10 15 7 18 -3 3 -9 -2 -12 -12z"/>
<path d="M2546 7107 c3 -10 9 -15 12 -12 3 3 0 11 -7 18 -10 9 -11 8 -5 -6z"/>
<path d="M1530 7014 c-40 -89 -100 -249 -99 -266 0 -7 28 57 62 142 34 85 66
161 71 168 4 7 6 16 3 19 -3 3 -20 -26 -37 -63z"/>
<path d="M1447 6738 c-8 -24 -21 -61 -27 -83 -7 -22 -16 -44 -20 -50 -12 -18
-38 -117 -61 -235 -12 -63 -26 -117 -30 -120 -4 -3 -15 -70 -25 -150 -13 -111
-18 -238 -19 -540 -2 -217 1 -370 5 -340 l7 55 2 -50 c2 -51 23 -233 41 -364
13 -87 25 -117 32 -78 3 16 1 24 -5 20 -6 -4 -8 9 -4 38 4 27 3 36 -2 24 -10
-24 -18 54 -27 273 -3 83 -9 152 -13 152 -3 0 -5 43 -3 95 2 62 0 95 -7 95 -6
0 -9 17 -6 43 2 23 7 128 10 232 9 267 21 390 52 540 15 72 27 144 27 162 1
17 5 29 9 26 5 -3 7 3 6 13 -3 23 11 87 20 94 8 6 62 183 57 187 -2 2 -10 -16
-19 -39z"/>
<path d="M1311 6766 c0 -4 -24 -97 -52 -205 -55 -214 -76 -342 -110 -645 -19
-182 -21 -234 -16 -605 4 -262 11 -457 21 -551 9 -80 16 -171 16 -202 0 -33
13 -104 30 -165 17 -60 35 -124 40 -143 35 -131 55 -188 61 -184 4 2 11 -10
14 -28 4 -18 16 -51 26 -72 11 -22 19 -44 19 -49 0 -14 81 -181 90 -187 29
-18 34 -146 6 -137 -13 4 -78 152 -136 307 -42 112 -149 497 -151 540 0 14 -3
20 -5 13 -10 -24 38 -297 91 -511 66 -266 136 -465 205 -580 27 -46 50 -88 50
-93 0 -5 4 -9 10 -9 5 0 12 -11 16 -25 3 -14 10 -25 14 -25 4 0 11 -12 15 -27
5 -23 8 -25 16 -12 6 11 2 29 -10 55 -10 22 -22 55 -25 74 l-7 35 26 -29 c14
-15 29 -25 32 -22 9 9 -53 254 -84 335 -41 110 -172 506 -178 542 -3 19 -12
57 -20 84 -32 112 -56 247 -50 277 5 20 4 28 -3 24 -6 -3 -15 6 -21 21 -10 26
-11 25 -7 -12 3 -24 2 -34 -3 -25 -5 8 -18 78 -30 155 -34 228 -54 1091 -26
1145 15 29 39 277 30 303 -13 33 31 286 90 511 14 54 24 106 22 115 -3 9 -5
12 -6 7z m-124 -738 c-3 -7 -5 -2 -5 12 0 14 2 19 5 13 2 -7 2 -19 0 -25z"/>
<path d="M1668 6493 c7 -3 16 -2 19 1 4 3 -2 6 -13 5 -11 0 -14 -3 -6 -6z"/>
<path d="M8675 6470 c29 -145 48 -226 56 -239 21 -32 0 84 -30 174 -17 50 -29
79 -26 65z"/>
<path d="M1665 6460 c3 -4 -6 -29 -19 -56 -13 -27 -33 -80 -46 -119 -13 -38
-33 -86 -45 -105 -23 -37 -66 -246 -85 -415 -10 -88 -26 -422 -24 -520 3 -219
6 -288 13 -270 6 13 10 -13 14 -75 4 -88 22 -214 35 -250 3 -8 4 -19 3 -25 -5
-20 23 -142 54 -234 47 -139 78 -269 71 -297 -4 -14 -1 -33 7 -44 13 -19 14
-19 28 8 20 39 23 2409 3 2409 -7 0 -11 -3 -9 -7z"/>
<path d="M1212 6165 c0 -16 2 -22 5 -12 2 9 2 23 0 30 -3 6 -5 -1 -5 -18z"/>
<path d="M1824 6000 c0 -91 2 -128 3 -82 2 45 2 119 0 165 -1 45 -3 8 -3 -83z"/>
<path d="M1723 5415 c-1 -264 2 -520 6 -570 10 -118 11 399 2 775 -7 255 -7
240 -8 -205z"/>
<path d="M1172 5785 c0 -16 2 -22 5 -12 2 9 2 23 0 30 -3 6 -5 -1 -5 -18z"/>
<path d="M8818 5420 c4 -259 -14 -614 -43 -804 -16 -106 -17 -122 -11 -115 7
7 33 186 51 348 19 167 24 687 8 766 -8 37 -9 -13 -5 -195z"/>
<path d="M1457 4740 c5 -137 16 -220 40 -292 8 -27 16 -48 17 -48 1 0 2 18 1
40 0 22 -4 40 -8 40 -5 0 -6 4 -3 8 3 4 1 26 -4 48 -5 21 -11 59 -14 84 -33
268 -35 275 -29 120z"/>
<path d="M1201 4754 c0 -11 3 -14 6 -6 3 7 2 16 -1 19 -3 4 -6 -2 -5 -13z"/>
<path d="M1241 4664 c0 -11 3 -14 6 -6 3 7 2 16 -1 19 -3 4 -6 -2 -5 -13z"/>
<path d="M1252 4600 c0 -14 2 -19 5 -12 2 6 2 18 0 25 -3 6 -5 1 -5 -13z"/>
<path d="M8641 4505 c-1 -11 -4 -31 -7 -45 -5 -22 -4 -23 6 -7 6 10 9 30 7 45
-3 18 -5 20 -6 7z"/>
<path d="M1151 4494 c0 -11 3 -14 6 -6 3 7 2 16 -1 19 -3 4 -6 -2 -5 -13z"/>
<path d="M8752 4470 c0 -14 2 -19 5 -12 2 6 2 18 0 25 -3 6 -5 1 -5 -13z"/>
<path d="M8731 4400 c-7 -25 -17 -60 -23 -78 -5 -18 -8 -36 -5 -39 8 -7 50
134 44 149 -2 7 -10 -7 -16 -32z"/>
<path d="M1723 4365 c0 -22 2 -30 4 -17 2 12 2 30 0 40 -3 9 -5 -1 -4 -23z"/>
<path d="M1520 4385 c0 -5 5 -17 10 -25 5 -8 10 -10 10 -5 0 6 -5 17 -10 25
-5 8 -10 11 -10 5z"/>
<path d="M1712 4290 c0 -19 2 -27 5 -17 2 9 2 25 0 35 -3 9 -5 1 -5 -18z"/>
<path d="M8332 4035 c0 -82 3 -172 7 -200 4 -27 5 36 3 140 -4 231 -10 266
-10 60z"/>
<path d="M2335 2360 c3 -5 8 -10 11 -10 2 0 4 5 4 10 0 6 -5 10 -11 10 -5 0
-7 -4 -4 -10z"/>
<path d="M7650 2319 l-35 -30 38 26 c33 24 43 35 34 35 -1 0 -18 -14 -37 -31z"/>
<path d="M7689 2323 c-13 -16 -12 -17 4 -4 16 13 21 21 13 21 -2 0 -10 -8 -17
-17z"/>
<path d="M2412 2184 c10 -10 20 -15 24 -12 3 4 -5 12 -18 18 -22 12 -22 12 -6
-6z"/>
</g>
</svg>
